<mxfile host="www.draw.io" modified="2019-11-01T06:22:13.625Z" agent="Mozilla/5.0 (Windows NT 10.0; WOW64) AppleWebKit/537.36 (KHTML, like Gecko) Chrome/55.0.2883.87 Safari/537.36" etag="vCZ7Bk5w_-CxKPDtxa87" version="12.1.9" type="github" pages="2">
  <diagram id="gNadpmQkBz4rUAjaJOd1" name="第 1 页">
    <mxGraphModel dx="2370" dy="1243" grid="1" gridSize="10" guides="1" tooltips="1" connect="1" arrows="1" fold="1" page="1" pageScale="1" pageWidth="827" pageHeight="1169" math="0" shadow="0">
      <root>
        <mxCell id="0"/>
        <mxCell id="1" parent="0"/>
        <mxCell id="PELSdjq24ZXIvh4sQHzd-4" value="" style="edgeStyle=orthogonalEdgeStyle;rounded=0;orthogonalLoop=1;jettySize=auto;html=1;strokeWidth=2;entryX=0.5;entryY=0;entryDx=0;entryDy=0;entryPerimeter=0;" parent="1" source="PELSdjq24ZXIvh4sQHzd-6" target="PELSdjq24ZXIvh4sQHzd-79" edge="1">
          <mxGeometry relative="1" as="geometry">
            <mxPoint x="880" y="394.5" as="targetPoint"/>
          </mxGeometry>
        </mxCell>
        <mxCell id="PELSdjq24ZXIvh4sQHzd-5" value="" style="edgeStyle=orthogonalEdgeStyle;rounded=0;orthogonalLoop=1;jettySize=auto;html=1;strokeWidth=2;entryX=1;entryY=0.5;entryDx=0;entryDy=0;entryPerimeter=0;" parent="1" target="PELSdjq24ZXIvh4sQHzd-88" edge="1">
          <mxGeometry relative="1" as="geometry">
            <mxPoint x="714.689655172414" y="329.6034482758621" as="targetPoint"/>
            <mxPoint x="845.2068965517242" y="330.29310344827593" as="sourcePoint"/>
            <Array as="points">
              <mxPoint x="780" y="330.5"/>
            </Array>
          </mxGeometry>
        </mxCell>
        <mxCell id="PELSdjq24ZXIvh4sQHzd-6" value="&lt;font style=&quot;vertical-align: inherit&quot;&gt;&lt;font style=&quot;vertical-align: inherit&quot;&gt;ACC ON？&lt;/font&gt;&lt;/font&gt;" style="rhombus;whiteSpace=wrap;html=1;strokeWidth=2;fillColor=#f8cecc;fontFamily=Helvetica;align=center;strokeColor=#b85450;gradientColor=#ea6b66;" parent="1" vertex="1">
          <mxGeometry x="840" y="290.5" width="80" height="80" as="geometry"/>
        </mxCell>
        <mxCell id="PELSdjq24ZXIvh4sQHzd-7" value="" style="edgeStyle=orthogonalEdgeStyle;rounded=0;orthogonalLoop=1;jettySize=auto;html=1;strokeWidth=2;" parent="1" source="PELSdjq24ZXIvh4sQHzd-8" edge="1">
          <mxGeometry relative="1" as="geometry">
            <mxPoint x="640" y="601.5" as="targetPoint"/>
          </mxGeometry>
        </mxCell>
        <mxCell id="PELSdjq24ZXIvh4sQHzd-8" value="&lt;font style=&quot;vertical-align: inherit&quot;&gt;&lt;font style=&quot;vertical-align: inherit&quot;&gt;&lt;font style=&quot;vertical-align: inherit&quot;&gt;&lt;font style=&quot;vertical-align: inherit&quot;&gt;&lt;font style=&quot;vertical-align: inherit&quot;&gt;&lt;font style=&quot;vertical-align: inherit&quot;&gt;&lt;font style=&quot;vertical-align: inherit&quot;&gt;&lt;font style=&quot;vertical-align: inherit&quot;&gt;打火电压&amp;gt;6V?&lt;/font&gt;&lt;/font&gt;&lt;/font&gt;&lt;/font&gt;&lt;/font&gt;&lt;/font&gt;&lt;/font&gt;&lt;/font&gt;" style="strokeWidth=2;html=1;shape=mxgraph.flowchart.decision;whiteSpace=wrap;fillColor=#ffffff;fontFamily=Helvetica;align=center;strokeColor=#000000;" parent="1" vertex="1">
          <mxGeometry x="810" y="562.5" width="140" height="78" as="geometry"/>
        </mxCell>
        <mxCell id="PELSdjq24ZXIvh4sQHzd-9" value="" style="edgeStyle=orthogonalEdgeStyle;rounded=0;orthogonalLoop=1;jettySize=auto;html=1;strokeWidth=2;" parent="1" source="PELSdjq24ZXIvh4sQHzd-8" edge="1">
          <mxGeometry relative="1" as="geometry">
            <mxPoint x="880" y="661.5" as="targetPoint"/>
          </mxGeometry>
        </mxCell>
        <mxCell id="PELSdjq24ZXIvh4sQHzd-10" value="" style="edgeStyle=orthogonalEdgeStyle;rounded=0;orthogonalLoop=1;jettySize=auto;html=1;strokeWidth=2;" parent="1" source="PELSdjq24ZXIvh4sQHzd-11" target="PELSdjq24ZXIvh4sQHzd-73" edge="1">
          <mxGeometry relative="1" as="geometry">
            <mxPoint x="880" y="781.5" as="targetPoint"/>
          </mxGeometry>
        </mxCell>
        <mxCell id="PELSdjq24ZXIvh4sQHzd-11" value="&lt;font style=&quot;vertical-align: inherit&quot;&gt;&lt;font style=&quot;vertical-align: inherit&quot;&gt;打开外围电路电源&lt;/font&gt;&lt;/font&gt;" style="strokeWidth=2;html=1;shape=mxgraph.flowchart.process;whiteSpace=wrap;fontFamily=Helvetica;align=center;fillColor=#d5e8d4;strokeColor=#82b366;" parent="1" vertex="1">
          <mxGeometry x="820" y="661.5" width="120" height="40" as="geometry"/>
        </mxCell>
        <mxCell id="PELSdjq24ZXIvh4sQHzd-12" style="edgeStyle=orthogonalEdgeStyle;rounded=0;html=1;endSize=6;jettySize=auto;orthogonalLoop=1;strokeWidth=2;fontFamily=Helvetica;" parent="1" source="PELSdjq24ZXIvh4sQHzd-14" edge="1">
          <mxGeometry relative="1" as="geometry">
            <mxPoint x="880" y="881.5" as="targetPoint"/>
          </mxGeometry>
        </mxCell>
        <mxCell id="PELSdjq24ZXIvh4sQHzd-13" value="" style="edgeStyle=orthogonalEdgeStyle;rounded=0;orthogonalLoop=1;jettySize=auto;html=1;strokeWidth=2;" parent="1" source="PELSdjq24ZXIvh4sQHzd-14" edge="1">
          <mxGeometry relative="1" as="geometry">
            <mxPoint x="640" y="821.5" as="targetPoint"/>
          </mxGeometry>
        </mxCell>
        <mxCell id="PELSdjq24ZXIvh4sQHzd-14" value="CPU已经唤醒？" style="strokeWidth=2;html=1;shape=mxgraph.flowchart.decision;whiteSpace=wrap;fillColor=#ffffff;fontFamily=Helvetica;align=center;strokeColor=#000000;" parent="1" vertex="1">
          <mxGeometry x="800" y="781.5" width="160" height="80" as="geometry"/>
        </mxCell>
        <mxCell id="PELSdjq24ZXIvh4sQHzd-15" value="Y" style="text;html=1;resizable=0;points=[];autosize=1;align=center;verticalAlign=middle;spacingTop=-4;fontFamily=Helvetica;labelPosition=center;verticalLabelPosition=middle;strokeWidth=2;fontSize=15;fontStyle=1" parent="1" vertex="1">
          <mxGeometry x="885" y="366.5" width="20" height="10" as="geometry"/>
        </mxCell>
        <mxCell id="PELSdjq24ZXIvh4sQHzd-16" value="&lt;span style=&quot;font-size: 15px&quot;&gt;&lt;font color=&quot;#ff0000&quot;&gt;N 10s后&lt;/font&gt;&lt;/span&gt;" style="text;html=1;resizable=0;points=[];autosize=1;align=left;verticalAlign=top;spacingTop=-4;fontFamily=Helvetica;strokeWidth=2;fontSize=15;fontStyle=1;fillColor=none;" parent="1" vertex="1">
          <mxGeometry x="750" y="303" width="70" height="20" as="geometry"/>
        </mxCell>
        <mxCell id="PELSdjq24ZXIvh4sQHzd-17" style="edgeStyle=orthogonalEdgeStyle;rounded=0;html=1;endSize=6;jettySize=auto;orthogonalLoop=1;strokeWidth=2;fontFamily=Helvetica;" parent="1" source="PELSdjq24ZXIvh4sQHzd-18" target="PELSdjq24ZXIvh4sQHzd-21" edge="1">
          <mxGeometry relative="1" as="geometry"/>
        </mxCell>
        <mxCell id="PELSdjq24ZXIvh4sQHzd-18" value="&lt;font style=&quot;vertical-align: inherit&quot;&gt;&lt;font style=&quot;vertical-align: inherit&quot;&gt;&lt;font style=&quot;vertical-align: inherit&quot;&gt;&lt;font style=&quot;vertical-align: inherit&quot;&gt;轮询处理：&lt;br&gt;采集电压，检测信号，控制外设，与应用通信等&lt;/font&gt;&lt;/font&gt;&lt;/font&gt;&lt;/font&gt;" style="strokeWidth=2;html=1;shape=mxgraph.flowchart.process;whiteSpace=wrap;fillColor=#d5e8d4;fontFamily=Helvetica;align=center;strokeColor=#82b366;" parent="1" vertex="1">
          <mxGeometry x="795" y="1100.5" width="170" height="60" as="geometry"/>
        </mxCell>
        <mxCell id="PELSdjq24ZXIvh4sQHzd-19" style="edgeStyle=orthogonalEdgeStyle;rounded=0;html=1;entryX=0.5;entryY=0;entryPerimeter=0;endSize=6;jettySize=auto;orthogonalLoop=1;strokeWidth=2;fontFamily=Helvetica;fontSize=15;" parent="1" source="PELSdjq24ZXIvh4sQHzd-21" target="PELSdjq24ZXIvh4sQHzd-24" edge="1">
          <mxGeometry relative="1" as="geometry">
            <mxPoint x="879.8333333333335" y="1470.1666666666667" as="targetPoint"/>
          </mxGeometry>
        </mxCell>
        <mxCell id="PELSdjq24ZXIvh4sQHzd-128" value="" style="edgeStyle=orthogonalEdgeStyle;rounded=0;orthogonalLoop=1;jettySize=auto;html=1;strokeWidth=2;" parent="1" source="PELSdjq24ZXIvh4sQHzd-21" edge="1">
          <mxGeometry relative="1" as="geometry">
            <mxPoint x="1000" y="1220.5" as="targetPoint"/>
          </mxGeometry>
        </mxCell>
        <mxCell id="PELSdjq24ZXIvh4sQHzd-21" value="&lt;font style=&quot;vertical-align: inherit&quot;&gt;&lt;font style=&quot;vertical-align: inherit&quot;&gt;&lt;font style=&quot;vertical-align: inherit&quot;&gt;&lt;font style=&quot;vertical-align: inherit&quot;&gt;ACC OFF？&lt;/font&gt;&lt;/font&gt;&lt;/font&gt;&lt;/font&gt;" style="rhombus;whiteSpace=wrap;html=1;strokeWidth=2;fillColor=#f8cecc;fontFamily=Helvetica;align=center;strokeColor=#b85450;gradientColor=#ea6b66;" parent="1" vertex="1">
          <mxGeometry x="840" y="1180.5" width="80" height="80" as="geometry"/>
        </mxCell>
        <mxCell id="PELSdjq24ZXIvh4sQHzd-22" style="edgeStyle=orthogonalEdgeStyle;rounded=1;html=1;entryX=0.5;entryY=0;endSize=6;jettySize=auto;orthogonalLoop=1;strokeWidth=2;fontFamily=Helvetica;fontSize=15;exitX=0.5;exitY=1;exitDx=0;exitDy=0;exitPerimeter=0;entryDx=0;entryDy=0;entryPerimeter=0;" parent="1" source="PELSdjq24ZXIvh4sQHzd-50" target="PELSdjq24ZXIvh4sQHzd-43" edge="1">
          <mxGeometry relative="1" as="geometry">
            <mxPoint x="879.7586206896551" y="1560.2586206896553" as="sourcePoint"/>
            <mxPoint x="879.9444444444443" y="1580.5555555555554" as="targetPoint"/>
          </mxGeometry>
        </mxCell>
        <mxCell id="PELSdjq24ZXIvh4sQHzd-23" style="edgeStyle=orthogonalEdgeStyle;rounded=1;html=1;entryX=0.5;entryY=0;endSize=6;jettySize=auto;orthogonalLoop=1;strokeWidth=2;fontFamily=Helvetica;fontSize=15;entryDx=0;entryDy=0;entryPerimeter=0;" parent="1" source="PELSdjq24ZXIvh4sQHzd-24" target="PELSdjq24ZXIvh4sQHzd-50" edge="1">
          <mxGeometry relative="1" as="geometry">
            <mxPoint x="879.7586206896551" y="1480.4310344827586" as="targetPoint"/>
          </mxGeometry>
        </mxCell>
        <mxCell id="PELSdjq24ZXIvh4sQHzd-24" value="上报ACC关机" style="strokeWidth=2;html=1;shape=mxgraph.flowchart.process;whiteSpace=wrap;fontFamily=Helvetica;align=center;" parent="1" vertex="1">
          <mxGeometry x="820" y="1400.5" width="120" height="40" as="geometry"/>
        </mxCell>
        <mxCell id="PELSdjq24ZXIvh4sQHzd-25" value="MCU休眠" style="strokeWidth=2;html=1;shape=mxgraph.flowchart.process;whiteSpace=wrap;fillColor=none;fontFamily=Helvetica;align=center;strokeColor=#000000;" parent="1" vertex="1">
          <mxGeometry x="820" y="2080.5" width="120" height="40" as="geometry"/>
        </mxCell>
        <mxCell id="PELSdjq24ZXIvh4sQHzd-26" value="" style="edgeStyle=orthogonalEdgeStyle;rounded=0;orthogonalLoop=1;jettySize=auto;html=1;strokeWidth=2;" parent="1" source="PELSdjq24ZXIvh4sQHzd-27" target="PELSdjq24ZXIvh4sQHzd-55" edge="1">
          <mxGeometry relative="1" as="geometry"/>
        </mxCell>
        <mxCell id="PELSdjq24ZXIvh4sQHzd-27" value="&lt;font style=&quot;vertical-align: inherit&quot;&gt;&lt;font style=&quot;vertical-align: inherit&quot;&gt;&lt;font style=&quot;vertical-align: inherit&quot;&gt;&lt;font style=&quot;vertical-align: inherit&quot;&gt;等待CPU休眠信号&lt;/font&gt;&lt;/font&gt;&lt;/font&gt;&lt;/font&gt;" style="strokeWidth=2;html=1;shape=mxgraph.flowchart.process;whiteSpace=wrap;fontFamily=Helvetica;align=center;" parent="1" vertex="1">
          <mxGeometry x="820" y="1620.5" width="120" height="40" as="geometry"/>
        </mxCell>
        <mxCell id="PELSdjq24ZXIvh4sQHzd-28" value="" style="edgeStyle=orthogonalEdgeStyle;rounded=0;orthogonalLoop=1;jettySize=auto;html=1;strokeWidth=2;entryX=0.5;entryY=0;entryDx=0;entryDy=0;entryPerimeter=0;" parent="1" source="PELSdjq24ZXIvh4sQHzd-29" target="PELSdjq24ZXIvh4sQHzd-25" edge="1">
          <mxGeometry relative="1" as="geometry">
            <mxPoint x="880" y="2253" as="targetPoint"/>
          </mxGeometry>
        </mxCell>
        <mxCell id="PELSdjq24ZXIvh4sQHzd-29" value="关闭外设电源，保留8257供电电源" style="strokeWidth=2;html=1;shape=mxgraph.flowchart.process;whiteSpace=wrap;fillColor=none;fontFamily=Helvetica;align=center;strokeColor=#000000;" parent="1" vertex="1">
          <mxGeometry x="815" y="2000.5" width="130" height="50" as="geometry"/>
        </mxCell>
        <mxCell id="PELSdjq24ZXIvh4sQHzd-30" value="Y" style="text;html=1;resizable=0;points=[];autosize=1;align=center;verticalAlign=middle;spacingTop=-4;fontFamily=Helvetica;labelPosition=center;verticalLabelPosition=middle;strokeWidth=2;fontSize=15;fontStyle=1" parent="1" vertex="1">
          <mxGeometry x="890" y="538" width="20" height="10" as="geometry"/>
        </mxCell>
        <mxCell id="PELSdjq24ZXIvh4sQHzd-31" value="" style="shape=flexArrow;endArrow=classic;html=1;fillColor=#f8cecc;strokeWidth=2;fontFamily=Helvetica;fontSize=15;strokeColor=#b85450;gradientColor=#ea6b66;width=9;endSize=9.13;" parent="1" edge="1">
          <mxGeometry width="50" height="50" relative="1" as="geometry">
            <mxPoint x="1042.5" y="2170.5" as="sourcePoint"/>
            <mxPoint x="950" y="2120.5" as="targetPoint"/>
          </mxGeometry>
        </mxCell>
        <mxCell id="PELSdjq24ZXIvh4sQHzd-32" value="&lt;b&gt;&lt;font style=&quot;vertical-align: inherit&quot;&gt;&lt;font style=&quot;vertical-align: inherit&quot;&gt;ACC ON&lt;br&gt;休眠唤醒&lt;br&gt;&lt;/font&gt;&lt;/font&gt;&lt;/b&gt;" style="text;html=1;resizable=0;points=[];autosize=1;align=left;verticalAlign=top;spacingTop=-4;fontSize=15;fontFamily=Helvetica;" parent="1" vertex="1">
          <mxGeometry x="890" y="2140.5" width="80" height="40" as="geometry"/>
        </mxCell>
        <mxCell id="PELSdjq24ZXIvh4sQHzd-33" style="edgeStyle=orthogonalEdgeStyle;rounded=0;html=1;endSize=6;jettySize=auto;orthogonalLoop=1;strokeWidth=2;fontFamily=Helvetica;fontSize=15;entryX=0;entryY=0.5;entryPerimeter=0;" parent="1" source="PELSdjq24ZXIvh4sQHzd-34" target="PELSdjq24ZXIvh4sQHzd-37" edge="1">
          <mxGeometry relative="1" as="geometry">
            <mxPoint x="675" y="241" as="targetPoint"/>
          </mxGeometry>
        </mxCell>
        <mxCell id="PELSdjq24ZXIvh4sQHzd-34" value="" style="triangle;whiteSpace=wrap;html=1;labelBackgroundColor=none;strokeColor=#b85450;strokeWidth=4;fillColor=#f8cecc;gradientColor=#ea6b66;fontFamily=Helvetica;fontSize=15;align=center;" parent="1" vertex="1">
          <mxGeometry x="510" y="160" width="70" height="102" as="geometry"/>
        </mxCell>
        <mxCell id="PELSdjq24ZXIvh4sQHzd-35" value="&lt;b&gt;&lt;font style=&quot;font-size: 30px&quot;&gt;上电开机&lt;/font&gt;&lt;/b&gt;" style="text;html=1;resizable=0;points=[];autosize=1;align=left;verticalAlign=top;spacingTop=-4;fontSize=15;fontFamily=Helvetica;" parent="1" vertex="1">
          <mxGeometry x="420" y="191" width="140" height="20" as="geometry"/>
        </mxCell>
        <mxCell id="PELSdjq24ZXIvh4sQHzd-36" style="edgeStyle=orthogonalEdgeStyle;rounded=0;html=1;endSize=6;jettySize=auto;orthogonalLoop=1;strokeWidth=2;fontFamily=Helvetica;fontSize=15;entryX=0.5;entryY=0;entryDx=0;entryDy=0;" parent="1" source="PELSdjq24ZXIvh4sQHzd-37" target="PELSdjq24ZXIvh4sQHzd-6" edge="1">
          <mxGeometry relative="1" as="geometry">
            <mxPoint x="880" y="250.5" as="targetPoint"/>
          </mxGeometry>
        </mxCell>
        <mxCell id="PELSdjq24ZXIvh4sQHzd-37" value="MCU初始化" style="strokeWidth=2;html=1;shape=mxgraph.flowchart.process;whiteSpace=wrap;fillColor=#d5e8d4;fontFamily=Helvetica;align=center;strokeColor=#82b366;" parent="1" vertex="1">
          <mxGeometry x="820" y="191" width="120" height="40" as="geometry"/>
        </mxCell>
        <mxCell id="PELSdjq24ZXIvh4sQHzd-38" value="&lt;b&gt;&lt;font style=&quot;font-size: 18px&quot;&gt;开机流程&lt;/font&gt;&lt;/b&gt;" style="text;html=1;strokeColor=none;fillColor=none;align=center;verticalAlign=middle;whiteSpace=wrap;rounded=0;labelBackgroundColor=none;fontFamily=Helvetica;fontSize=15;" parent="1" vertex="1">
          <mxGeometry x="665" y="176" width="90" height="30" as="geometry"/>
        </mxCell>
        <mxCell id="PELSdjq24ZXIvh4sQHzd-39" value="Y" style="text;html=1;resizable=0;points=[];autosize=1;align=center;verticalAlign=middle;spacingTop=-4;fontFamily=Helvetica;labelPosition=center;verticalLabelPosition=middle;strokeWidth=2;fontSize=15;fontStyle=1" parent="1" vertex="1">
          <mxGeometry x="885" y="961.5" width="20" height="10" as="geometry"/>
        </mxCell>
        <mxCell id="PELSdjq24ZXIvh4sQHzd-42" value="" style="edgeStyle=orthogonalEdgeStyle;rounded=0;orthogonalLoop=1;jettySize=auto;html=1;strokeWidth=2;" parent="1" source="PELSdjq24ZXIvh4sQHzd-43" edge="1">
          <mxGeometry relative="1" as="geometry">
            <mxPoint x="880" y="1620.5" as="targetPoint"/>
          </mxGeometry>
        </mxCell>
        <mxCell id="PELSdjq24ZXIvh4sQHzd-43" value="&lt;span&gt;&lt;font style=&quot;vertical-align: inherit&quot;&gt;&lt;font style=&quot;vertical-align: inherit&quot;&gt;POWER KEY&lt;br&gt;休眠&lt;br&gt;&lt;/font&gt;&lt;/font&gt;&lt;/span&gt;" style="strokeWidth=2;html=1;shape=mxgraph.flowchart.process;whiteSpace=wrap;fillColor=#f8cecc;fontFamily=Helvetica;align=center;strokeColor=#b85450;" parent="1" vertex="1">
          <mxGeometry x="820" y="1560.5" width="120" height="40" as="geometry"/>
        </mxCell>
        <mxCell id="PELSdjq24ZXIvh4sQHzd-44" value="&lt;font color=&quot;#ff0000&quot;&gt;N&lt;/font&gt;" style="text;html=1;resizable=0;points=[];autosize=1;align=left;verticalAlign=top;spacingTop=-4;fontFamily=Helvetica;fontSize=15;fontStyle=1" parent="1" vertex="1">
          <mxGeometry x="965" y="1480.5" width="30" height="20" as="geometry"/>
        </mxCell>
        <mxCell id="PELSdjq24ZXIvh4sQHzd-45" style="edgeStyle=orthogonalEdgeStyle;rounded=0;html=1;jettySize=auto;orthogonalLoop=1;strokeWidth=2;" parent="1" source="PELSdjq24ZXIvh4sQHzd-47" edge="1">
          <mxGeometry relative="1" as="geometry">
            <mxPoint x="880" y="981.5" as="targetPoint"/>
          </mxGeometry>
        </mxCell>
        <mxCell id="PELSdjq24ZXIvh4sQHzd-46" value="" style="edgeStyle=orthogonalEdgeStyle;rounded=0;orthogonalLoop=1;jettySize=auto;html=1;strokeWidth=2;" parent="1" source="PELSdjq24ZXIvh4sQHzd-47" edge="1">
          <mxGeometry relative="1" as="geometry">
            <mxPoint x="640" y="921.5" as="targetPoint"/>
          </mxGeometry>
        </mxCell>
        <mxCell id="PELSdjq24ZXIvh4sQHzd-47" value="应用是否启动？" style="strokeWidth=2;html=1;shape=mxgraph.flowchart.decision;whiteSpace=wrap;fillColor=#ffffff;fontFamily=Helvetica;align=center;strokeColor=#000000;" parent="1" vertex="1">
          <mxGeometry x="800" y="881.5" width="160" height="80" as="geometry"/>
        </mxCell>
        <mxCell id="PELSdjq24ZXIvh4sQHzd-48" value="" style="edgeStyle=orthogonalEdgeStyle;rounded=0;html=1;jettySize=auto;orthogonalLoop=1;strokeWidth=2;entryX=0.5;entryY=0;entryPerimeter=0;" parent="1" source="PELSdjq24ZXIvh4sQHzd-49" target="PELSdjq24ZXIvh4sQHzd-18" edge="1">
          <mxGeometry relative="1" as="geometry">
            <mxPoint x="880" y="1180.642857142857" as="targetPoint"/>
          </mxGeometry>
        </mxCell>
        <mxCell id="PELSdjq24ZXIvh4sQHzd-49" value="开功放" style="strokeWidth=2;html=1;shape=mxgraph.flowchart.process;whiteSpace=wrap;fontFamily=Helvetica;align=center;" parent="1" vertex="1">
          <mxGeometry x="820" y="981.6428571428571" width="120" height="40" as="geometry"/>
        </mxCell>
        <mxCell id="PELSdjq24ZXIvh4sQHzd-50" value="ACC OFF&lt;br&gt;&amp;gt;10s?&lt;br&gt;" style="strokeWidth=2;html=1;shape=mxgraph.flowchart.decision;whiteSpace=wrap;fillColor=#ffffff;fontFamily=Helvetica;align=center;strokeColor=#000000;" parent="1" vertex="1">
          <mxGeometry x="800" y="1460.5" width="160" height="80" as="geometry"/>
        </mxCell>
        <mxCell id="PELSdjq24ZXIvh4sQHzd-51" value="" style="edgeStyle=elbowEdgeStyle;elbow=horizontal;endArrow=classic;html=1;strokeWidth=2;entryX=1;entryY=0.5;entryDx=0;entryDy=0;exitX=1;exitY=0.5;exitDx=0;exitDy=0;exitPerimeter=0;entryPerimeter=0;" parent="1" source="PELSdjq24ZXIvh4sQHzd-50" target="PELSdjq24ZXIvh4sQHzd-18" edge="1">
          <mxGeometry width="50" height="50" relative="1" as="geometry">
            <mxPoint x="960" y="1480.5" as="sourcePoint"/>
            <mxPoint x="920" y="1270.5" as="targetPoint"/>
            <Array as="points">
              <mxPoint x="1000" y="1440.5"/>
            </Array>
          </mxGeometry>
        </mxCell>
        <mxCell id="PELSdjq24ZXIvh4sQHzd-52" value="Y" style="text;html=1;resizable=0;points=[];autosize=1;align=center;verticalAlign=middle;spacingTop=-4;fontFamily=Helvetica;labelPosition=center;verticalLabelPosition=middle;strokeWidth=2;fontSize=15;fontStyle=1" parent="1" vertex="1">
          <mxGeometry x="885" y="866.5" width="20" height="10" as="geometry"/>
        </mxCell>
        <mxCell id="PELSdjq24ZXIvh4sQHzd-53" value="" style="edgeStyle=orthogonalEdgeStyle;rounded=0;orthogonalLoop=1;jettySize=auto;html=1;strokeWidth=2;" parent="1" source="PELSdjq24ZXIvh4sQHzd-55" edge="1">
          <mxGeometry relative="1" as="geometry">
            <mxPoint x="640" y="1720.5" as="targetPoint"/>
          </mxGeometry>
        </mxCell>
        <mxCell id="PELSdjq24ZXIvh4sQHzd-54" value="" style="edgeStyle=orthogonalEdgeStyle;rounded=0;orthogonalLoop=1;jettySize=auto;html=1;strokeWidth=2;" parent="1" source="PELSdjq24ZXIvh4sQHzd-55" target="PELSdjq24ZXIvh4sQHzd-63" edge="1">
          <mxGeometry relative="1" as="geometry"/>
        </mxCell>
        <mxCell id="PELSdjq24ZXIvh4sQHzd-55" value="&lt;font style=&quot;vertical-align: inherit&quot;&gt;&lt;font style=&quot;vertical-align: inherit&quot;&gt;CPU已经休眠？&lt;/font&gt;&lt;/font&gt;&lt;br&gt;" style="strokeWidth=2;html=1;shape=mxgraph.flowchart.decision;whiteSpace=wrap;fillColor=#ffffff;fontFamily=Helvetica;align=center;strokeColor=#000000;" parent="1" vertex="1">
          <mxGeometry x="800" y="1680.5" width="160" height="80" as="geometry"/>
        </mxCell>
        <mxCell id="PELSdjq24ZXIvh4sQHzd-56" value="Y" style="text;html=1;strokeColor=none;fillColor=none;align=center;verticalAlign=middle;whiteSpace=wrap;rounded=0;labelBackgroundColor=none;fontFamily=Helvetica;fontSize=15;fontStyle=1" parent="1" vertex="1">
          <mxGeometry x="880" y="1753" width="40" height="20" as="geometry"/>
        </mxCell>
        <mxCell id="PELSdjq24ZXIvh4sQHzd-57" value="" style="edgeStyle=orthogonalEdgeStyle;rounded=0;orthogonalLoop=1;jettySize=auto;html=1;strokeWidth=2;entryX=0.5;entryY=0;entryDx=0;entryDy=0;" parent="1" source="PELSdjq24ZXIvh4sQHzd-58" target="PELSdjq24ZXIvh4sQHzd-60" edge="1">
          <mxGeometry relative="1" as="geometry">
            <mxPoint x="762.5" y="2023" as="targetPoint"/>
          </mxGeometry>
        </mxCell>
        <mxCell id="PELSdjq24ZXIvh4sQHzd-58" value="&lt;font style=&quot;vertical-align: inherit&quot;&gt;&lt;font style=&quot;vertical-align: inherit&quot;&gt;标记错误&lt;/font&gt;&lt;/font&gt;" style="strokeWidth=2;html=1;shape=mxgraph.flowchart.process;whiteSpace=wrap;fillColor=#fff2cc;fontFamily=Helvetica;align=center;strokeColor=#d6b656;" parent="1" vertex="1">
          <mxGeometry x="580" y="1760.5" width="120" height="40" as="geometry"/>
        </mxCell>
        <mxCell id="PELSdjq24ZXIvh4sQHzd-59" value="" style="edgeStyle=orthogonalEdgeStyle;rounded=0;orthogonalLoop=1;jettySize=auto;html=1;strokeWidth=2;entryX=0.5;entryY=0;entryDx=0;entryDy=0;entryPerimeter=0;" parent="1" source="PELSdjq24ZXIvh4sQHzd-60" target="PELSdjq24ZXIvh4sQHzd-76" edge="1">
          <mxGeometry relative="1" as="geometry">
            <mxPoint x="705.5" y="2010.5" as="targetPoint"/>
            <Array as="points"/>
          </mxGeometry>
        </mxCell>
        <mxCell id="PELSdjq24ZXIvh4sQHzd-60" value="&lt;font style=&quot;vertical-align: inherit&quot;&gt;&lt;font style=&quot;vertical-align: inherit&quot;&gt;ACC OFF？&lt;/font&gt;&lt;/font&gt;" style="rhombus;whiteSpace=wrap;html=1;strokeWidth=2;fillColor=#f8cecc;fontFamily=Helvetica;align=center;strokeColor=#b85450;gradientColor=#ea6b66;" parent="1" vertex="1">
          <mxGeometry x="600" y="1825.2586206896551" width="80" height="80" as="geometry"/>
        </mxCell>
        <mxCell id="PELSdjq24ZXIvh4sQHzd-61" value="&lt;font color=&quot;#ff0000&quot;&gt;N 60s后&lt;/font&gt;" style="text;html=1;resizable=0;points=[];autosize=1;align=left;verticalAlign=top;spacingTop=-4;fontFamily=Helvetica;fontSize=15;fontStyle=1" parent="1" vertex="1">
          <mxGeometry x="695" y="1700.5" width="70" height="20" as="geometry"/>
        </mxCell>
        <mxCell id="PELSdjq24ZXIvh4sQHzd-140" value="" style="edgeStyle=orthogonalEdgeStyle;rounded=0;orthogonalLoop=1;jettySize=auto;html=1;strokeWidth=2;entryX=0.5;entryY=0;entryDx=0;entryDy=0;entryPerimeter=0;" parent="1" source="PELSdjq24ZXIvh4sQHzd-63" target="PELSdjq24ZXIvh4sQHzd-29" edge="1">
          <mxGeometry relative="1" as="geometry">
            <mxPoint x="880" y="1957.758620689655" as="targetPoint"/>
          </mxGeometry>
        </mxCell>
        <mxCell id="PELSdjq24ZXIvh4sQHzd-63" value="&lt;font style=&quot;vertical-align: inherit&quot;&gt;&lt;font style=&quot;vertical-align: inherit&quot;&gt;ACC ON？&lt;/font&gt;&lt;/font&gt;" style="rhombus;whiteSpace=wrap;html=1;strokeWidth=2;fillColor=#f8cecc;fontFamily=Helvetica;align=center;strokeColor=#b85450;gradientColor=#ea6b66;" parent="1" vertex="1">
          <mxGeometry x="840" y="1797.7586206896551" width="80" height="80" as="geometry"/>
        </mxCell>
        <mxCell id="PELSdjq24ZXIvh4sQHzd-64" value="Y" style="text;html=1;strokeColor=none;fillColor=none;align=center;verticalAlign=middle;whiteSpace=wrap;rounded=0;labelBackgroundColor=none;fontFamily=Helvetica;fontSize=15;fontStyle=1" parent="1" vertex="1">
          <mxGeometry x="880" y="1540" width="40" height="20" as="geometry"/>
        </mxCell>
        <mxCell id="PELSdjq24ZXIvh4sQHzd-65" value="" style="edgeStyle=elbowEdgeStyle;elbow=horizontal;endArrow=classic;html=1;strokeWidth=2;exitX=1;exitY=0.5;exitDx=0;exitDy=0;entryX=1;entryY=0.5;entryDx=0;entryDy=0;entryPerimeter=0;" parent="1" source="PELSdjq24ZXIvh4sQHzd-63" target="PELSdjq24ZXIvh4sQHzd-73" edge="1">
          <mxGeometry width="50" height="50" relative="1" as="geometry">
            <mxPoint x="1005.189655172414" y="1860.4310344827586" as="sourcePoint"/>
            <mxPoint x="943" y="660.5" as="targetPoint"/>
            <Array as="points">
              <mxPoint x="1070" y="1290.5"/>
              <mxPoint x="1060" y="699.5"/>
              <mxPoint x="1060" y="1210.5"/>
              <mxPoint x="1050" y="1210.5"/>
              <mxPoint x="1040" y="1030.5"/>
              <mxPoint x="1050" y="1030.5"/>
              <mxPoint x="1040" y="1310.5"/>
              <mxPoint x="1045.5" y="1790.5"/>
            </Array>
          </mxGeometry>
        </mxCell>
        <mxCell id="PELSdjq24ZXIvh4sQHzd-67" value="Y" style="text;html=1;strokeColor=none;fillColor=none;align=center;verticalAlign=middle;whiteSpace=wrap;rounded=0;labelBackgroundColor=none;fontFamily=Helvetica;fontSize=15;fontStyle=1" parent="1" vertex="1">
          <mxGeometry x="935" y="1818" width="40" height="20" as="geometry"/>
        </mxCell>
        <mxCell id="PELSdjq24ZXIvh4sQHzd-69" value="Y" style="text;html=1;strokeColor=none;fillColor=none;align=center;verticalAlign=middle;whiteSpace=wrap;rounded=0;labelBackgroundColor=none;fontFamily=Helvetica;fontSize=15;fontStyle=1" parent="1" vertex="1">
          <mxGeometry x="632.5" y="1910.5" width="40" height="20" as="geometry"/>
        </mxCell>
        <mxCell id="PELSdjq24ZXIvh4sQHzd-70" value="Y" style="text;html=1;resizable=0;points=[];autosize=1;align=center;verticalAlign=middle;spacingTop=-4;fontFamily=Helvetica;labelPosition=center;verticalLabelPosition=middle;strokeWidth=2;fontSize=15;fontStyle=1" parent="1" vertex="1">
          <mxGeometry x="880" y="1270" width="20" height="10" as="geometry"/>
        </mxCell>
        <mxCell id="PELSdjq24ZXIvh4sQHzd-71" value="&lt;font color=&quot;#ff0000&quot;&gt;N&lt;/font&gt;" style="text;html=1;resizable=0;points=[];autosize=1;align=left;verticalAlign=top;spacingTop=-4;fontFamily=Helvetica;fontSize=15;fontStyle=1" parent="1" vertex="1">
          <mxGeometry x="945" y="1200" width="30" height="20" as="geometry"/>
        </mxCell>
        <mxCell id="PELSdjq24ZXIvh4sQHzd-72" value="" style="edgeStyle=orthogonalEdgeStyle;rounded=0;orthogonalLoop=1;jettySize=auto;html=1;strokeWidth=2;" parent="1" source="PELSdjq24ZXIvh4sQHzd-73" target="PELSdjq24ZXIvh4sQHzd-14" edge="1">
          <mxGeometry relative="1" as="geometry"/>
        </mxCell>
        <mxCell id="PELSdjq24ZXIvh4sQHzd-73" value="POWER KEY&lt;br&gt;唤醒" style="strokeWidth=2;html=1;shape=mxgraph.flowchart.process;whiteSpace=wrap;fillColor=#d5e8d4;fontFamily=Helvetica;align=center;strokeColor=#82b366;" parent="1" vertex="1">
          <mxGeometry x="820" y="721.5" width="120" height="40" as="geometry"/>
        </mxCell>
        <mxCell id="PELSdjq24ZXIvh4sQHzd-76" value="关闭所有电源&lt;br&gt;" style="strokeWidth=2;html=1;shape=mxgraph.flowchart.process;whiteSpace=wrap;fillColor=none;fontFamily=Helvetica;align=center;strokeColor=#000000;" parent="1" vertex="1">
          <mxGeometry x="580" y="1940.5" width="120" height="40" as="geometry"/>
        </mxCell>
        <mxCell id="PELSdjq24ZXIvh4sQHzd-77" value="" style="edgeStyle=segmentEdgeStyle;endArrow=classic;html=1;strokeWidth=2;entryX=0;entryY=0.5;entryDx=0;entryDy=0;entryPerimeter=0;exitX=0.5;exitY=1;exitDx=0;exitDy=0;exitPerimeter=0;" parent="1" source="PELSdjq24ZXIvh4sQHzd-76" target="PELSdjq24ZXIvh4sQHzd-25" edge="1">
          <mxGeometry width="50" height="50" relative="1" as="geometry">
            <mxPoint x="645" y="1991" as="sourcePoint"/>
            <mxPoint x="800" y="2021" as="targetPoint"/>
            <Array as="points">
              <mxPoint x="640" y="2100.5"/>
            </Array>
          </mxGeometry>
        </mxCell>
        <mxCell id="PELSdjq24ZXIvh4sQHzd-78" value="" style="edgeStyle=orthogonalEdgeStyle;rounded=0;orthogonalLoop=1;jettySize=auto;html=1;strokeWidth=2;" parent="1" source="PELSdjq24ZXIvh4sQHzd-79" edge="1">
          <mxGeometry relative="1" as="geometry">
            <mxPoint x="880" y="460" as="targetPoint"/>
          </mxGeometry>
        </mxCell>
        <mxCell id="PELSdjq24ZXIvh4sQHzd-79" value="&lt;font style=&quot;vertical-align: inherit&quot;&gt;&lt;font style=&quot;vertical-align: inherit&quot;&gt;采集开机打火电压1s&lt;/font&gt;&lt;/font&gt;" style="strokeWidth=2;html=1;shape=mxgraph.flowchart.process;whiteSpace=wrap;fontFamily=Helvetica;align=center;" parent="1" vertex="1">
          <mxGeometry x="820" y="394.5" width="120" height="40" as="geometry"/>
        </mxCell>
        <mxCell id="PELSdjq24ZXIvh4sQHzd-81" value="&lt;font style=&quot;vertical-align: inherit&quot;&gt;&lt;font style=&quot;vertical-align: inherit&quot;&gt;&lt;font style=&quot;vertical-align: inherit&quot;&gt;&lt;font style=&quot;vertical-align: inherit&quot;&gt;&lt;font style=&quot;vertical-align: inherit&quot;&gt;&lt;font style=&quot;vertical-align: inherit&quot;&gt;&lt;font style=&quot;vertical-align: inherit&quot;&gt;&lt;font style=&quot;vertical-align: inherit&quot;&gt;供电电压&amp;gt;11V?&lt;/font&gt;&lt;/font&gt;&lt;/font&gt;&lt;/font&gt;&lt;/font&gt;&lt;/font&gt;&lt;/font&gt;&lt;/font&gt;" style="strokeWidth=2;html=1;shape=mxgraph.flowchart.decision;whiteSpace=wrap;fillColor=#ffffff;fontFamily=Helvetica;align=center;strokeColor=#000000;" parent="1" vertex="1">
          <mxGeometry x="570" y="414.5" width="140" height="78" as="geometry"/>
        </mxCell>
        <mxCell id="PELSdjq24ZXIvh4sQHzd-87" value="" style="edgeStyle=orthogonalEdgeStyle;rounded=0;orthogonalLoop=1;jettySize=auto;html=1;strokeWidth=2;" parent="1" source="PELSdjq24ZXIvh4sQHzd-88" target="PELSdjq24ZXIvh4sQHzd-81" edge="1">
          <mxGeometry relative="1" as="geometry"/>
        </mxCell>
        <mxCell id="PELSdjq24ZXIvh4sQHzd-88" value="休眠启动？" style="strokeWidth=2;html=1;shape=mxgraph.flowchart.decision;whiteSpace=wrap;fillColor=#ffffff;fontFamily=Helvetica;align=center;strokeColor=#000000;" parent="1" vertex="1">
          <mxGeometry x="570" y="291.5" width="140" height="78" as="geometry"/>
        </mxCell>
        <mxCell id="PELSdjq24ZXIvh4sQHzd-90" value="" style="edgeStyle=orthogonalEdgeStyle;rounded=0;orthogonalLoop=1;jettySize=auto;html=1;strokeWidth=2;entryX=0.5;entryY=0;entryDx=0;entryDy=0;entryPerimeter=0;exitX=0.5;exitY=1;exitDx=0;exitDy=0;exitPerimeter=0;" parent="1" source="PELSdjq24ZXIvh4sQHzd-81" target="PELSdjq24ZXIvh4sQHzd-58" edge="1">
          <mxGeometry relative="1" as="geometry">
            <mxPoint x="640" y="601.5" as="sourcePoint"/>
            <mxPoint x="640" y="1620.5" as="targetPoint"/>
            <Array as="points"/>
          </mxGeometry>
        </mxCell>
        <mxCell id="PELSdjq24ZXIvh4sQHzd-91" value="Y" style="text;html=1;resizable=0;points=[];autosize=1;align=center;verticalAlign=middle;spacingTop=-4;fontFamily=Helvetica;labelPosition=center;verticalLabelPosition=middle;strokeWidth=2;fontSize=15;fontStyle=1" parent="1" vertex="1">
          <mxGeometry x="642.5" y="371.5" width="20" height="10" as="geometry"/>
        </mxCell>
        <mxCell id="PELSdjq24ZXIvh4sQHzd-97" value="&lt;span style=&quot;font-size: 15px&quot;&gt;&lt;font color=&quot;#ff0000&quot;&gt;N 5s后&lt;/font&gt;&lt;/span&gt;" style="text;html=1;resizable=0;points=[];autosize=1;align=left;verticalAlign=top;spacingTop=-4;fontFamily=Helvetica;strokeWidth=2;fontSize=15;fontStyle=1" parent="1" vertex="1">
          <mxGeometry x="705" y="581.5" width="60" height="20" as="geometry"/>
        </mxCell>
        <mxCell id="PELSdjq24ZXIvh4sQHzd-98" value="&lt;span style=&quot;font-size: 15px&quot;&gt;&lt;font color=&quot;#ff0000&quot;&gt;N&lt;/font&gt;&lt;/span&gt;" style="text;html=1;resizable=0;points=[];autosize=1;align=left;verticalAlign=top;spacingTop=-4;fontFamily=Helvetica;strokeWidth=2;fontSize=15;fontStyle=1" parent="1" vertex="1">
          <mxGeometry x="530" y="300.5" width="30" height="20" as="geometry"/>
        </mxCell>
        <mxCell id="PELSdjq24ZXIvh4sQHzd-99" value="&lt;span style=&quot;font-size: 15px&quot;&gt;&lt;font color=&quot;#ff0000&quot;&gt;N&lt;/font&gt;&lt;/span&gt;" style="text;html=1;resizable=0;points=[];autosize=1;align=left;verticalAlign=top;spacingTop=-4;fontFamily=Helvetica;strokeWidth=2;fontSize=15;fontStyle=1" parent="1" vertex="1">
          <mxGeometry x="647.5" y="499" width="30" height="20" as="geometry"/>
        </mxCell>
        <mxCell id="PELSdjq24ZXIvh4sQHzd-100" value="" style="edgeStyle=elbowEdgeStyle;elbow=horizontal;endArrow=classic;html=1;strokeWidth=2;exitX=1;exitY=0.5;exitDx=0;exitDy=0;exitPerimeter=0;entryX=1;entryY=0.5;entryDx=0;entryDy=0;entryPerimeter=0;" parent="1" source="PELSdjq24ZXIvh4sQHzd-25" target="PELSdjq24ZXIvh4sQHzd-37" edge="1">
          <mxGeometry width="50" height="50" relative="1" as="geometry">
            <mxPoint x="1045" y="2047" as="sourcePoint"/>
            <mxPoint x="890" y="190.5" as="targetPoint"/>
            <Array as="points">
              <mxPoint x="1120" y="1190.5"/>
              <mxPoint x="1140" y="770.5"/>
              <mxPoint x="1140" y="1110.5"/>
              <mxPoint x="1185" y="1420"/>
              <mxPoint x="1175" y="1420"/>
              <mxPoint x="1165" y="1240"/>
              <mxPoint x="1175" y="1240"/>
              <mxPoint x="1165" y="1520"/>
              <mxPoint x="1170.5" y="2000"/>
            </Array>
          </mxGeometry>
        </mxCell>
        <mxCell id="PELSdjq24ZXIvh4sQHzd-103" value="Y" style="text;html=1;resizable=0;points=[];autosize=1;align=center;verticalAlign=middle;spacingTop=-4;fontFamily=Helvetica;labelPosition=center;verticalLabelPosition=middle;strokeWidth=2;fontSize=15;fontStyle=1" parent="1" vertex="1">
          <mxGeometry x="545" y="429.5" width="20" height="10" as="geometry"/>
        </mxCell>
        <mxCell id="PELSdjq24ZXIvh4sQHzd-105" value="" style="edgeStyle=segmentEdgeStyle;endArrow=classic;html=1;strokeWidth=2;entryX=-0.038;entryY=0.593;entryDx=0;entryDy=0;entryPerimeter=0;exitX=0;exitY=0.5;exitDx=0;exitDy=0;exitPerimeter=0;" parent="1" source="PELSdjq24ZXIvh4sQHzd-81" target="PELSdjq24ZXIvh4sQHzd-29" edge="1">
          <mxGeometry width="50" height="50" relative="1" as="geometry">
            <mxPoint x="560" y="510.5" as="sourcePoint"/>
            <mxPoint x="780" y="2030.5" as="targetPoint"/>
            <Array as="points">
              <mxPoint x="530" y="454"/>
              <mxPoint x="530" y="2031"/>
            </Array>
          </mxGeometry>
        </mxCell>
        <mxCell id="PELSdjq24ZXIvh4sQHzd-106" value="" style="edgeStyle=segmentEdgeStyle;endArrow=classic;html=1;strokeWidth=2;entryX=0;entryY=0.5;entryDx=0;entryDy=0;entryPerimeter=0;exitX=0;exitY=0.5;exitDx=0;exitDy=0;exitPerimeter=0;" parent="1" source="PELSdjq24ZXIvh4sQHzd-88" target="PELSdjq24ZXIvh4sQHzd-76" edge="1">
          <mxGeometry width="50" height="50" relative="1" as="geometry">
            <mxPoint x="519.4411764705883" y="385.32352941176464" as="sourcePoint"/>
            <mxPoint x="759.4411764705883" y="1894.7352941176473" as="targetPoint"/>
            <Array as="points">
              <mxPoint x="480" y="331"/>
              <mxPoint x="480" y="1961"/>
            </Array>
          </mxGeometry>
        </mxCell>
        <mxCell id="PELSdjq24ZXIvh4sQHzd-121" value="&lt;span style=&quot;font-size: 15px&quot;&gt;&lt;font color=&quot;#ff0000&quot;&gt;N 30s后&lt;/font&gt;&lt;/span&gt;" style="text;html=1;resizable=0;points=[];autosize=1;align=left;verticalAlign=top;spacingTop=-4;fontFamily=Helvetica;strokeWidth=2;fontSize=15;fontStyle=1" parent="1" vertex="1">
          <mxGeometry x="685" y="800" width="70" height="20" as="geometry"/>
        </mxCell>
        <mxCell id="PELSdjq24ZXIvh4sQHzd-122" value="&lt;span style=&quot;font-size: 15px&quot;&gt;&lt;font color=&quot;#ff0000&quot;&gt;N 10s后(休眠启动)/&lt;br&gt;N 300s后(上电启动)&lt;br&gt;&lt;/font&gt;&lt;/span&gt;" style="text;html=1;resizable=0;points=[];autosize=1;align=left;verticalAlign=top;spacingTop=-4;fontFamily=Helvetica;strokeWidth=2;fontSize=15;fontStyle=1" parent="1" vertex="1">
          <mxGeometry x="660" y="881.5" width="150" height="40" as="geometry"/>
        </mxCell>
        <mxCell id="PELSdjq24ZXIvh4sQHzd-129" value="&lt;span style=&quot;font-size: 15px&quot;&gt;&lt;font color=&quot;#ff0000&quot;&gt;N 30s后&lt;/font&gt;&lt;/span&gt;" style="text;html=1;resizable=0;points=[];autosize=1;align=left;verticalAlign=top;spacingTop=-4;fontFamily=Helvetica;strokeWidth=2;fontSize=15;fontStyle=1" parent="1" vertex="1">
          <mxGeometry x="745" y="790" width="70" height="20" as="geometry"/>
        </mxCell>
        <mxCell id="PELSdjq24ZXIvh4sQHzd-131" value="" style="edgeStyle=orthogonalEdgeStyle;rounded=0;orthogonalLoop=1;jettySize=auto;html=1;strokeWidth=2;" parent="1" source="PELSdjq24ZXIvh4sQHzd-130" target="PELSdjq24ZXIvh4sQHzd-8" edge="1">
          <mxGeometry relative="1" as="geometry"/>
        </mxCell>
        <mxCell id="PELSdjq24ZXIvh4sQHzd-130" value="&lt;font style=&quot;vertical-align: inherit&quot;&gt;&lt;font style=&quot;vertical-align: inherit&quot;&gt;&lt;font style=&quot;vertical-align: inherit&quot;&gt;&lt;font style=&quot;vertical-align: inherit&quot;&gt;&lt;font style=&quot;vertical-align: inherit&quot;&gt;&lt;font style=&quot;vertical-align: inherit&quot;&gt;&lt;font style=&quot;vertical-align: inherit&quot;&gt;&lt;font style=&quot;vertical-align: inherit&quot;&gt;打火电压稳定?&lt;/font&gt;&lt;/font&gt;&lt;/font&gt;&lt;/font&gt;&lt;/font&gt;&lt;/font&gt;&lt;/font&gt;&lt;/font&gt;" style="strokeWidth=2;html=1;shape=mxgraph.flowchart.decision;whiteSpace=wrap;fillColor=#ffffff;fontFamily=Helvetica;align=center;strokeColor=#000000;" parent="1" vertex="1">
          <mxGeometry x="810" y="460" width="140" height="78" as="geometry"/>
        </mxCell>
        <mxCell id="PELSdjq24ZXIvh4sQHzd-132" value="" style="edgeStyle=segmentEdgeStyle;endArrow=classic;html=1;strokeWidth=2;exitX=1;exitY=0.5;exitDx=0;exitDy=0;exitPerimeter=0;entryX=1;entryY=0.5;entryDx=0;entryDy=0;entryPerimeter=0;" parent="1" source="PELSdjq24ZXIvh4sQHzd-130" target="PELSdjq24ZXIvh4sQHzd-79" edge="1">
          <mxGeometry width="50" height="50" relative="1" as="geometry">
            <mxPoint x="980" y="454.5" as="sourcePoint"/>
            <mxPoint x="1030" y="404.5" as="targetPoint"/>
            <Array as="points">
              <mxPoint x="1000" y="499"/>
              <mxPoint x="1000" y="415"/>
            </Array>
          </mxGeometry>
        </mxCell>
        <mxCell id="PELSdjq24ZXIvh4sQHzd-133" value="&lt;font color=&quot;#ff0000&quot;&gt;N&lt;/font&gt;" style="text;html=1;resizable=0;points=[];autosize=1;align=left;verticalAlign=top;spacingTop=-4;fontFamily=Helvetica;fontSize=15;fontStyle=1" parent="1" vertex="1">
          <mxGeometry x="965" y="472.5" width="30" height="20" as="geometry"/>
        </mxCell>
        <mxCell id="PELSdjq24ZXIvh4sQHzd-136" value="&lt;font color=&quot;#ff0000&quot;&gt;N 20s后&lt;/font&gt;" style="text;html=1;resizable=0;points=[];autosize=1;align=left;verticalAlign=top;spacingTop=-4;fontFamily=Helvetica;fontSize=15;fontStyle=1" parent="1" vertex="1">
          <mxGeometry x="885" y="1890.5" width="70" height="20" as="geometry"/>
        </mxCell>
      </root>
    </mxGraphModel>
  </diagram>
  <diagram id="SPyugnYoDMlyQeZEH6Wl" name="第 2 页">
    <mxGraphModel dx="3555" dy="1865" grid="1" gridSize="10" guides="1" tooltips="1" connect="1" arrows="1" fold="1" page="1" pageScale="1" pageWidth="827" pageHeight="1169" math="0" shadow="0">
      <root>
        <mxCell id="tD7m0J1AVj7Mmlp5e4tH-0"/>
        <mxCell id="tD7m0J1AVj7Mmlp5e4tH-1" parent="tD7m0J1AVj7Mmlp5e4tH-0"/>
        <mxCell id="D-0crWyyb3UeT7KklOJ1-0" value="" style="edgeStyle=orthogonalEdgeStyle;rounded=0;orthogonalLoop=1;jettySize=auto;html=1;strokeWidth=2;entryX=0.5;entryY=0;entryDx=0;entryDy=0;entryPerimeter=0;" parent="tD7m0J1AVj7Mmlp5e4tH-1" source="D-0crWyyb3UeT7KklOJ1-2" target="D-0crWyyb3UeT7KklOJ1-69" edge="1">
          <mxGeometry relative="1" as="geometry">
            <mxPoint x="880" y="394.5" as="targetPoint"/>
          </mxGeometry>
        </mxCell>
        <mxCell id="D-0crWyyb3UeT7KklOJ1-1" value="" style="edgeStyle=orthogonalEdgeStyle;rounded=0;orthogonalLoop=1;jettySize=auto;html=1;strokeWidth=2;entryX=1;entryY=0.5;entryDx=0;entryDy=0;entryPerimeter=0;" parent="tD7m0J1AVj7Mmlp5e4tH-1" target="D-0crWyyb3UeT7KklOJ1-72" edge="1">
          <mxGeometry relative="1" as="geometry">
            <mxPoint x="714.689655172414" y="329.6034482758621" as="targetPoint"/>
            <mxPoint x="845" y="330" as="sourcePoint"/>
            <Array as="points">
              <mxPoint x="780" y="330.5"/>
            </Array>
          </mxGeometry>
        </mxCell>
        <mxCell id="D-0crWyyb3UeT7KklOJ1-128" value="" style="edgeStyle=orthogonalEdgeStyle;rounded=1;orthogonalLoop=1;jettySize=auto;html=1;strokeWidth=2;entryX=0;entryY=0.5;entryDx=0;entryDy=0;entryPerimeter=0;" parent="tD7m0J1AVj7Mmlp5e4tH-1" source="D-0crWyyb3UeT7KklOJ1-2" target="D-0crWyyb3UeT7KklOJ1-108" edge="1">
          <mxGeometry relative="1" as="geometry">
            <mxPoint x="1000" y="330.4999999999999" as="targetPoint"/>
          </mxGeometry>
        </mxCell>
        <mxCell id="D-0crWyyb3UeT7KklOJ1-2" value="&lt;font style=&quot;vertical-align: inherit&quot;&gt;&lt;font style=&quot;vertical-align: inherit&quot;&gt;ACC ON？&lt;/font&gt;&lt;/font&gt;" style="rhombus;whiteSpace=wrap;html=1;strokeWidth=2;fillColor=#f8cecc;fontFamily=Helvetica;align=center;strokeColor=#b85450;gradientColor=#ea6b66;" parent="tD7m0J1AVj7Mmlp5e4tH-1" vertex="1">
          <mxGeometry x="840" y="290.5" width="80" height="80" as="geometry"/>
        </mxCell>
        <mxCell id="D-0crWyyb3UeT7KklOJ1-133" value="" style="edgeStyle=orthogonalEdgeStyle;rounded=1;orthogonalLoop=1;jettySize=auto;html=1;strokeWidth=2;" parent="tD7m0J1AVj7Mmlp5e4tH-1" source="D-0crWyyb3UeT7KklOJ1-4" edge="1">
          <mxGeometry relative="1" as="geometry">
            <mxPoint x="700" y="602" as="targetPoint"/>
          </mxGeometry>
        </mxCell>
        <mxCell id="D-0crWyyb3UeT7KklOJ1-4" value="&lt;font style=&quot;vertical-align: inherit&quot;&gt;&lt;font style=&quot;vertical-align: inherit&quot;&gt;&lt;font style=&quot;vertical-align: inherit&quot;&gt;&lt;font style=&quot;vertical-align: inherit&quot;&gt;&lt;font style=&quot;vertical-align: inherit&quot;&gt;&lt;font style=&quot;vertical-align: inherit&quot;&gt;&lt;font style=&quot;vertical-align: inherit&quot;&gt;&lt;font style=&quot;vertical-align: inherit&quot;&gt;打火电压&amp;gt;6V?&lt;/font&gt;&lt;/font&gt;&lt;/font&gt;&lt;/font&gt;&lt;/font&gt;&lt;/font&gt;&lt;/font&gt;&lt;/font&gt;" style="strokeWidth=2;html=1;shape=mxgraph.flowchart.decision;whiteSpace=wrap;fillColor=#ffffff;fontFamily=Helvetica;align=center;strokeColor=#000000;" parent="tD7m0J1AVj7Mmlp5e4tH-1" vertex="1">
          <mxGeometry x="810" y="562.5" width="140" height="78" as="geometry"/>
        </mxCell>
        <mxCell id="D-0crWyyb3UeT7KklOJ1-5" value="" style="edgeStyle=orthogonalEdgeStyle;rounded=0;orthogonalLoop=1;jettySize=auto;html=1;strokeWidth=2;" parent="tD7m0J1AVj7Mmlp5e4tH-1" source="D-0crWyyb3UeT7KklOJ1-4" edge="1">
          <mxGeometry relative="1" as="geometry">
            <mxPoint x="880" y="661.5" as="targetPoint"/>
          </mxGeometry>
        </mxCell>
        <mxCell id="D-0crWyyb3UeT7KklOJ1-6" value="" style="edgeStyle=orthogonalEdgeStyle;rounded=0;orthogonalLoop=1;jettySize=auto;html=1;strokeWidth=2;" parent="tD7m0J1AVj7Mmlp5e4tH-1" source="D-0crWyyb3UeT7KklOJ1-7" target="D-0crWyyb3UeT7KklOJ1-65" edge="1">
          <mxGeometry relative="1" as="geometry">
            <mxPoint x="880" y="781.5" as="targetPoint"/>
          </mxGeometry>
        </mxCell>
        <mxCell id="D-0crWyyb3UeT7KklOJ1-7" value="&lt;font style=&quot;vertical-align: inherit&quot;&gt;&lt;font style=&quot;vertical-align: inherit&quot;&gt;打开外围电路电源&lt;/font&gt;&lt;/font&gt;" style="strokeWidth=2;html=1;shape=mxgraph.flowchart.process;whiteSpace=wrap;fontFamily=Helvetica;align=center;fillColor=#d5e8d4;strokeColor=#82b366;" parent="tD7m0J1AVj7Mmlp5e4tH-1" vertex="1">
          <mxGeometry x="820" y="661.5" width="120" height="40" as="geometry"/>
        </mxCell>
        <mxCell id="D-0crWyyb3UeT7KklOJ1-8" style="edgeStyle=orthogonalEdgeStyle;rounded=0;html=1;endSize=6;jettySize=auto;orthogonalLoop=1;strokeWidth=2;fontFamily=Helvetica;" parent="tD7m0J1AVj7Mmlp5e4tH-1" source="D-0crWyyb3UeT7KklOJ1-10" edge="1">
          <mxGeometry relative="1" as="geometry">
            <mxPoint x="880" y="881.5" as="targetPoint"/>
          </mxGeometry>
        </mxCell>
        <mxCell id="D-0crWyyb3UeT7KklOJ1-124" value="" style="edgeStyle=orthogonalEdgeStyle;rounded=1;orthogonalLoop=1;jettySize=auto;html=1;strokeWidth=2;" parent="tD7m0J1AVj7Mmlp5e4tH-1" source="D-0crWyyb3UeT7KklOJ1-10" edge="1">
          <mxGeometry relative="1" as="geometry">
            <mxPoint x="1110" y="822" as="targetPoint"/>
            <Array as="points">
              <mxPoint x="1035" y="821"/>
            </Array>
          </mxGeometry>
        </mxCell>
        <mxCell id="D-0crWyyb3UeT7KklOJ1-10" value="等待系统启动信号，&lt;br&gt;CPU已经唤醒？" style="strokeWidth=2;html=1;shape=mxgraph.flowchart.decision;whiteSpace=wrap;fillColor=#ffffff;fontFamily=Helvetica;align=center;strokeColor=#000000;" parent="tD7m0J1AVj7Mmlp5e4tH-1" vertex="1">
          <mxGeometry x="800" y="781.5" width="160" height="80" as="geometry"/>
        </mxCell>
        <mxCell id="D-0crWyyb3UeT7KklOJ1-11" value="Y" style="text;html=1;resizable=0;points=[];autosize=1;align=center;verticalAlign=middle;spacingTop=-4;fontFamily=Helvetica;labelPosition=center;verticalLabelPosition=middle;strokeWidth=2;fontSize=15;fontStyle=1" parent="tD7m0J1AVj7Mmlp5e4tH-1" vertex="1">
          <mxGeometry x="885" y="366.5" width="20" height="10" as="geometry"/>
        </mxCell>
        <mxCell id="D-0crWyyb3UeT7KklOJ1-12" value="&lt;span style=&quot;font-size: 15px&quot;&gt;&lt;font color=&quot;#ff0000&quot;&gt;N 10s后&lt;/font&gt;&lt;/span&gt;" style="text;html=1;resizable=0;points=[];autosize=1;align=left;verticalAlign=top;spacingTop=-4;fontFamily=Helvetica;strokeWidth=2;fontSize=15;fontStyle=1;fillColor=none;" parent="tD7m0J1AVj7Mmlp5e4tH-1" vertex="1">
          <mxGeometry x="945" y="308" width="70" height="20" as="geometry"/>
        </mxCell>
        <mxCell id="D-0crWyyb3UeT7KklOJ1-13" style="edgeStyle=orthogonalEdgeStyle;rounded=0;html=1;endSize=6;jettySize=auto;orthogonalLoop=1;strokeWidth=2;fontFamily=Helvetica;" parent="tD7m0J1AVj7Mmlp5e4tH-1" source="D-0crWyyb3UeT7KklOJ1-14" target="D-0crWyyb3UeT7KklOJ1-17" edge="1">
          <mxGeometry relative="1" as="geometry"/>
        </mxCell>
        <mxCell id="D-0crWyyb3UeT7KklOJ1-14" value="&lt;font style=&quot;vertical-align: inherit&quot;&gt;&lt;font style=&quot;vertical-align: inherit&quot;&gt;&lt;font style=&quot;vertical-align: inherit&quot;&gt;&lt;font style=&quot;vertical-align: inherit&quot;&gt;轮询处理：&lt;br&gt;采集电压，检测信号，控制外设，与应用通信等&lt;/font&gt;&lt;/font&gt;&lt;/font&gt;&lt;/font&gt;" style="strokeWidth=2;html=1;shape=mxgraph.flowchart.process;whiteSpace=wrap;fillColor=#d5e8d4;fontFamily=Helvetica;align=center;strokeColor=#82b366;" parent="tD7m0J1AVj7Mmlp5e4tH-1" vertex="1">
          <mxGeometry x="795" y="1100.5" width="170" height="60" as="geometry"/>
        </mxCell>
        <mxCell id="D-0crWyyb3UeT7KklOJ1-15" style="edgeStyle=orthogonalEdgeStyle;rounded=0;html=1;entryX=0.5;entryY=0;entryPerimeter=0;endSize=6;jettySize=auto;orthogonalLoop=1;strokeWidth=2;fontFamily=Helvetica;fontSize=15;" parent="tD7m0J1AVj7Mmlp5e4tH-1" source="D-0crWyyb3UeT7KklOJ1-17" target="D-0crWyyb3UeT7KklOJ1-20" edge="1">
          <mxGeometry relative="1" as="geometry">
            <mxPoint x="879.8333333333335" y="1470.1666666666667" as="targetPoint"/>
          </mxGeometry>
        </mxCell>
        <mxCell id="D-0crWyyb3UeT7KklOJ1-16" value="" style="edgeStyle=orthogonalEdgeStyle;rounded=0;orthogonalLoop=1;jettySize=auto;html=1;strokeWidth=2;" parent="tD7m0J1AVj7Mmlp5e4tH-1" source="D-0crWyyb3UeT7KklOJ1-17" edge="1">
          <mxGeometry relative="1" as="geometry">
            <mxPoint x="1000" y="1220.5" as="targetPoint"/>
          </mxGeometry>
        </mxCell>
        <mxCell id="D-0crWyyb3UeT7KklOJ1-17" value="&lt;font style=&quot;vertical-align: inherit&quot;&gt;&lt;font style=&quot;vertical-align: inherit&quot;&gt;&lt;font style=&quot;vertical-align: inherit&quot;&gt;&lt;font style=&quot;vertical-align: inherit&quot;&gt;ACC OFF？&lt;/font&gt;&lt;/font&gt;&lt;/font&gt;&lt;/font&gt;" style="rhombus;whiteSpace=wrap;html=1;strokeWidth=2;fillColor=#f8cecc;fontFamily=Helvetica;align=center;strokeColor=#b85450;gradientColor=#ea6b66;" parent="tD7m0J1AVj7Mmlp5e4tH-1" vertex="1">
          <mxGeometry x="840" y="1180.5" width="80" height="80" as="geometry"/>
        </mxCell>
        <mxCell id="D-0crWyyb3UeT7KklOJ1-18" style="edgeStyle=orthogonalEdgeStyle;rounded=1;html=1;entryX=0.5;entryY=0;endSize=6;jettySize=auto;orthogonalLoop=1;strokeWidth=2;fontFamily=Helvetica;fontSize=15;exitX=0.5;exitY=1;exitDx=0;exitDy=0;exitPerimeter=0;entryDx=0;entryDy=0;entryPerimeter=0;" parent="tD7m0J1AVj7Mmlp5e4tH-1" source="D-0crWyyb3UeT7KklOJ1-44" target="D-0crWyyb3UeT7KklOJ1-37" edge="1">
          <mxGeometry relative="1" as="geometry">
            <mxPoint x="879.7586206896551" y="1560.2586206896553" as="sourcePoint"/>
            <mxPoint x="879.9444444444443" y="1580.5555555555554" as="targetPoint"/>
          </mxGeometry>
        </mxCell>
        <mxCell id="D-0crWyyb3UeT7KklOJ1-19" style="edgeStyle=orthogonalEdgeStyle;rounded=1;html=1;entryX=0.5;entryY=0;endSize=6;jettySize=auto;orthogonalLoop=1;strokeWidth=2;fontFamily=Helvetica;fontSize=15;entryDx=0;entryDy=0;entryPerimeter=0;" parent="tD7m0J1AVj7Mmlp5e4tH-1" source="D-0crWyyb3UeT7KklOJ1-20" target="D-0crWyyb3UeT7KklOJ1-44" edge="1">
          <mxGeometry relative="1" as="geometry">
            <mxPoint x="879.7586206896551" y="1480.4310344827586" as="targetPoint"/>
          </mxGeometry>
        </mxCell>
        <mxCell id="D-0crWyyb3UeT7KklOJ1-20" value="上报ACC关机协议" style="strokeWidth=2;html=1;shape=mxgraph.flowchart.process;whiteSpace=wrap;fontFamily=Helvetica;align=center;" parent="tD7m0J1AVj7Mmlp5e4tH-1" vertex="1">
          <mxGeometry x="820" y="1400.5" width="120" height="40" as="geometry"/>
        </mxCell>
        <mxCell id="D-0crWyyb3UeT7KklOJ1-21" value="MCU休眠" style="strokeWidth=2;html=1;shape=mxgraph.flowchart.process;whiteSpace=wrap;fillColor=none;fontFamily=Helvetica;align=center;strokeColor=#000000;" parent="tD7m0J1AVj7Mmlp5e4tH-1" vertex="1">
          <mxGeometry x="820" y="1990" width="120" height="40" as="geometry"/>
        </mxCell>
        <mxCell id="D-0crWyyb3UeT7KklOJ1-22" value="" style="edgeStyle=orthogonalEdgeStyle;rounded=0;orthogonalLoop=1;jettySize=auto;html=1;strokeWidth=2;" parent="tD7m0J1AVj7Mmlp5e4tH-1" source="D-0crWyyb3UeT7KklOJ1-23" target="D-0crWyyb3UeT7KklOJ1-49" edge="1">
          <mxGeometry relative="1" as="geometry"/>
        </mxCell>
        <mxCell id="D-0crWyyb3UeT7KklOJ1-23" value="&lt;font style=&quot;vertical-align: inherit&quot;&gt;&lt;font style=&quot;vertical-align: inherit&quot;&gt;&lt;font style=&quot;vertical-align: inherit&quot;&gt;&lt;font style=&quot;vertical-align: inherit&quot;&gt;等待CPU休眠信号&lt;/font&gt;&lt;/font&gt;&lt;/font&gt;&lt;/font&gt;" style="strokeWidth=2;html=1;shape=mxgraph.flowchart.process;whiteSpace=wrap;fontFamily=Helvetica;align=center;" parent="tD7m0J1AVj7Mmlp5e4tH-1" vertex="1">
          <mxGeometry x="820" y="1620.5" width="120" height="40" as="geometry"/>
        </mxCell>
        <mxCell id="D-0crWyyb3UeT7KklOJ1-24" value="" style="edgeStyle=orthogonalEdgeStyle;rounded=0;orthogonalLoop=1;jettySize=auto;html=1;strokeWidth=2;entryX=0.5;entryY=0;entryDx=0;entryDy=0;entryPerimeter=0;" parent="tD7m0J1AVj7Mmlp5e4tH-1" source="D-0crWyyb3UeT7KklOJ1-25" target="D-0crWyyb3UeT7KklOJ1-21" edge="1">
          <mxGeometry relative="1" as="geometry">
            <mxPoint x="880" y="2253" as="targetPoint"/>
          </mxGeometry>
        </mxCell>
        <mxCell id="D-0crWyyb3UeT7KklOJ1-25" value="关闭外设电源，保留8257供电电源" style="strokeWidth=2;html=1;shape=mxgraph.flowchart.process;whiteSpace=wrap;fillColor=none;fontFamily=Helvetica;align=center;strokeColor=#000000;" parent="tD7m0J1AVj7Mmlp5e4tH-1" vertex="1">
          <mxGeometry x="815" y="1900" width="130" height="50" as="geometry"/>
        </mxCell>
        <mxCell id="D-0crWyyb3UeT7KklOJ1-26" value="Y" style="text;html=1;resizable=0;points=[];autosize=1;align=center;verticalAlign=middle;spacingTop=-4;fontFamily=Helvetica;labelPosition=center;verticalLabelPosition=middle;strokeWidth=2;fontSize=15;fontStyle=1" parent="tD7m0J1AVj7Mmlp5e4tH-1" vertex="1">
          <mxGeometry x="890" y="538" width="20" height="10" as="geometry"/>
        </mxCell>
        <mxCell id="D-0crWyyb3UeT7KklOJ1-27" value="" style="shape=flexArrow;endArrow=classic;html=1;fillColor=#f8cecc;strokeWidth=2;fontFamily=Helvetica;fontSize=15;strokeColor=#b85450;gradientColor=#ea6b66;width=9;endSize=9.128571428571428;endWidth=20;" parent="tD7m0J1AVj7Mmlp5e4tH-1" edge="1">
          <mxGeometry width="50" height="50" relative="1" as="geometry">
            <mxPoint x="865" y="2140" as="sourcePoint"/>
            <mxPoint x="895" y="2070" as="targetPoint"/>
          </mxGeometry>
        </mxCell>
        <mxCell id="D-0crWyyb3UeT7KklOJ1-28" value="&lt;b&gt;&lt;font style=&quot;vertical-align: inherit&quot;&gt;&lt;font style=&quot;vertical-align: inherit&quot;&gt;ACC ON&lt;br&gt;休眠唤醒&lt;br&gt;热启动&lt;br&gt;&lt;/font&gt;&lt;/font&gt;&lt;/b&gt;" style="text;html=1;resizable=0;points=[];autosize=1;align=left;verticalAlign=top;spacingTop=-4;fontSize=15;fontFamily=Helvetica;" parent="tD7m0J1AVj7Mmlp5e4tH-1" vertex="1">
          <mxGeometry x="800" y="2050" width="80" height="60" as="geometry"/>
        </mxCell>
        <mxCell id="D-0crWyyb3UeT7KklOJ1-29" style="edgeStyle=orthogonalEdgeStyle;rounded=0;html=1;endSize=6;jettySize=auto;orthogonalLoop=1;strokeWidth=2;fontFamily=Helvetica;fontSize=15;entryX=0;entryY=0.5;entryPerimeter=0;" parent="tD7m0J1AVj7Mmlp5e4tH-1" source="D-0crWyyb3UeT7KklOJ1-30" target="D-0crWyyb3UeT7KklOJ1-33" edge="1">
          <mxGeometry relative="1" as="geometry">
            <mxPoint x="675" y="241" as="targetPoint"/>
          </mxGeometry>
        </mxCell>
        <mxCell id="D-0crWyyb3UeT7KklOJ1-30" value="" style="triangle;whiteSpace=wrap;html=1;labelBackgroundColor=none;strokeColor=#b85450;strokeWidth=4;fillColor=#f8cecc;gradientColor=#ea6b66;fontFamily=Helvetica;fontSize=15;align=center;" parent="tD7m0J1AVj7Mmlp5e4tH-1" vertex="1">
          <mxGeometry x="380" y="160" width="70" height="102" as="geometry"/>
        </mxCell>
        <mxCell id="D-0crWyyb3UeT7KklOJ1-31" value="&lt;b&gt;&lt;font style=&quot;font-size: 30px&quot;&gt;上电开机&lt;/font&gt;&lt;/b&gt;" style="text;html=1;resizable=0;points=[];autosize=1;align=left;verticalAlign=top;spacingTop=-4;fontSize=15;fontFamily=Helvetica;" parent="tD7m0J1AVj7Mmlp5e4tH-1" vertex="1">
          <mxGeometry x="290" y="191" width="140" height="20" as="geometry"/>
        </mxCell>
        <mxCell id="D-0crWyyb3UeT7KklOJ1-32" style="edgeStyle=orthogonalEdgeStyle;rounded=0;html=1;endSize=6;jettySize=auto;orthogonalLoop=1;strokeWidth=2;fontFamily=Helvetica;fontSize=15;entryX=0.5;entryY=0;entryDx=0;entryDy=0;" parent="tD7m0J1AVj7Mmlp5e4tH-1" source="D-0crWyyb3UeT7KklOJ1-33" target="D-0crWyyb3UeT7KklOJ1-2" edge="1">
          <mxGeometry relative="1" as="geometry">
            <mxPoint x="880" y="250.5" as="targetPoint"/>
          </mxGeometry>
        </mxCell>
        <mxCell id="D-0crWyyb3UeT7KklOJ1-33" value="MCU初始化" style="strokeWidth=2;html=1;shape=mxgraph.flowchart.process;whiteSpace=wrap;fillColor=#d5e8d4;fontFamily=Helvetica;align=center;strokeColor=#82b366;" parent="tD7m0J1AVj7Mmlp5e4tH-1" vertex="1">
          <mxGeometry x="820" y="191" width="120" height="40" as="geometry"/>
        </mxCell>
        <mxCell id="D-0crWyyb3UeT7KklOJ1-35" value="Y" style="text;html=1;resizable=0;points=[];autosize=1;align=center;verticalAlign=middle;spacingTop=-4;fontFamily=Helvetica;labelPosition=center;verticalLabelPosition=middle;strokeWidth=2;fontSize=15;fontStyle=1" parent="tD7m0J1AVj7Mmlp5e4tH-1" vertex="1">
          <mxGeometry x="885" y="961.5" width="20" height="10" as="geometry"/>
        </mxCell>
        <mxCell id="D-0crWyyb3UeT7KklOJ1-36" value="" style="edgeStyle=orthogonalEdgeStyle;rounded=0;orthogonalLoop=1;jettySize=auto;html=1;strokeWidth=2;" parent="tD7m0J1AVj7Mmlp5e4tH-1" source="D-0crWyyb3UeT7KklOJ1-37" edge="1">
          <mxGeometry relative="1" as="geometry">
            <mxPoint x="880" y="1620.5" as="targetPoint"/>
          </mxGeometry>
        </mxCell>
        <mxCell id="D-0crWyyb3UeT7KklOJ1-37" value="&lt;span&gt;&lt;font style=&quot;vertical-align: inherit&quot;&gt;&lt;font style=&quot;vertical-align: inherit&quot;&gt;发送POWER KEY&lt;br&gt;休眠信号&lt;br&gt;&lt;/font&gt;&lt;/font&gt;&lt;/span&gt;" style="strokeWidth=2;html=1;shape=mxgraph.flowchart.process;whiteSpace=wrap;fillColor=#f8cecc;fontFamily=Helvetica;align=center;strokeColor=#b85450;" parent="tD7m0J1AVj7Mmlp5e4tH-1" vertex="1">
          <mxGeometry x="820" y="1560.5" width="120" height="40" as="geometry"/>
        </mxCell>
        <mxCell id="D-0crWyyb3UeT7KklOJ1-38" value="&lt;font color=&quot;#ff0000&quot;&gt;N&lt;/font&gt;" style="text;html=1;resizable=0;points=[];autosize=1;align=left;verticalAlign=top;spacingTop=-4;fontFamily=Helvetica;fontSize=15;fontStyle=1" parent="tD7m0J1AVj7Mmlp5e4tH-1" vertex="1">
          <mxGeometry x="965" y="1480.5" width="30" height="20" as="geometry"/>
        </mxCell>
        <mxCell id="D-0crWyyb3UeT7KklOJ1-39" style="edgeStyle=orthogonalEdgeStyle;rounded=0;html=1;jettySize=auto;orthogonalLoop=1;strokeWidth=2;" parent="tD7m0J1AVj7Mmlp5e4tH-1" source="D-0crWyyb3UeT7KklOJ1-41" edge="1">
          <mxGeometry relative="1" as="geometry">
            <mxPoint x="880" y="981.5" as="targetPoint"/>
          </mxGeometry>
        </mxCell>
        <mxCell id="D-0crWyyb3UeT7KklOJ1-122" value="" style="edgeStyle=orthogonalEdgeStyle;rounded=1;orthogonalLoop=1;jettySize=auto;html=1;strokeWidth=2;" parent="tD7m0J1AVj7Mmlp5e4tH-1" source="D-0crWyyb3UeT7KklOJ1-41" edge="1">
          <mxGeometry relative="1" as="geometry">
            <mxPoint x="1110" y="922" as="targetPoint"/>
            <Array as="points">
              <mxPoint x="1035" y="921"/>
            </Array>
          </mxGeometry>
        </mxCell>
        <mxCell id="D-0crWyyb3UeT7KklOJ1-41" value="等待应用发送心跳协议，&lt;br&gt;应用是否启动？" style="strokeWidth=2;html=1;shape=mxgraph.flowchart.decision;whiteSpace=wrap;fillColor=#ffffff;fontFamily=Helvetica;align=center;strokeColor=#000000;" parent="tD7m0J1AVj7Mmlp5e4tH-1" vertex="1">
          <mxGeometry x="800" y="881.5" width="160" height="80" as="geometry"/>
        </mxCell>
        <mxCell id="D-0crWyyb3UeT7KklOJ1-42" value="" style="edgeStyle=orthogonalEdgeStyle;rounded=0;html=1;jettySize=auto;orthogonalLoop=1;strokeWidth=2;entryX=0.5;entryY=0;entryPerimeter=0;" parent="tD7m0J1AVj7Mmlp5e4tH-1" source="D-0crWyyb3UeT7KklOJ1-43" target="D-0crWyyb3UeT7KklOJ1-14" edge="1">
          <mxGeometry relative="1" as="geometry">
            <mxPoint x="880" y="1180.642857142857" as="targetPoint"/>
          </mxGeometry>
        </mxCell>
        <mxCell id="D-0crWyyb3UeT7KklOJ1-43" value="开功放" style="strokeWidth=2;html=1;shape=mxgraph.flowchart.process;whiteSpace=wrap;fontFamily=Helvetica;align=center;" parent="tD7m0J1AVj7Mmlp5e4tH-1" vertex="1">
          <mxGeometry x="820" y="981.6428571428571" width="120" height="40" as="geometry"/>
        </mxCell>
        <mxCell id="D-0crWyyb3UeT7KklOJ1-44" value="ACC OFF&lt;br&gt;&amp;gt;10s?&lt;br&gt;" style="strokeWidth=2;html=1;shape=mxgraph.flowchart.decision;whiteSpace=wrap;fillColor=#ffffff;fontFamily=Helvetica;align=center;strokeColor=#000000;" parent="tD7m0J1AVj7Mmlp5e4tH-1" vertex="1">
          <mxGeometry x="800" y="1460.5" width="160" height="80" as="geometry"/>
        </mxCell>
        <mxCell id="D-0crWyyb3UeT7KklOJ1-45" value="" style="edgeStyle=elbowEdgeStyle;elbow=horizontal;endArrow=classic;html=1;strokeWidth=2;entryX=1;entryY=0.5;entryDx=0;entryDy=0;exitX=1;exitY=0.5;exitDx=0;exitDy=0;exitPerimeter=0;entryPerimeter=0;" parent="tD7m0J1AVj7Mmlp5e4tH-1" source="D-0crWyyb3UeT7KklOJ1-44" target="D-0crWyyb3UeT7KklOJ1-14" edge="1">
          <mxGeometry width="50" height="50" relative="1" as="geometry">
            <mxPoint x="960" y="1480.5" as="sourcePoint"/>
            <mxPoint x="920" y="1270.5" as="targetPoint"/>
            <Array as="points">
              <mxPoint x="1000" y="1440.5"/>
            </Array>
          </mxGeometry>
        </mxCell>
        <mxCell id="D-0crWyyb3UeT7KklOJ1-46" value="Y" style="text;html=1;resizable=0;points=[];autosize=1;align=center;verticalAlign=middle;spacingTop=-4;fontFamily=Helvetica;labelPosition=center;verticalLabelPosition=middle;strokeWidth=2;fontSize=15;fontStyle=1" parent="tD7m0J1AVj7Mmlp5e4tH-1" vertex="1">
          <mxGeometry x="885" y="866.5" width="20" height="10" as="geometry"/>
        </mxCell>
        <mxCell id="D-0crWyyb3UeT7KklOJ1-47" value="" style="edgeStyle=orthogonalEdgeStyle;rounded=1;orthogonalLoop=1;jettySize=auto;html=1;strokeWidth=2;entryX=0.5;entryY=1;entryDx=0;entryDy=0;entryPerimeter=0;" parent="tD7m0J1AVj7Mmlp5e4tH-1" source="D-0crWyyb3UeT7KklOJ1-49" target="D-0crWyyb3UeT7KklOJ1-107" edge="1">
          <mxGeometry relative="1" as="geometry">
            <mxPoint x="1160" y="410" as="targetPoint"/>
          </mxGeometry>
        </mxCell>
        <mxCell id="D-0crWyyb3UeT7KklOJ1-48" value="" style="edgeStyle=orthogonalEdgeStyle;rounded=0;orthogonalLoop=1;jettySize=auto;html=1;strokeWidth=2;" parent="tD7m0J1AVj7Mmlp5e4tH-1" source="D-0crWyyb3UeT7KklOJ1-49" target="D-0crWyyb3UeT7KklOJ1-57" edge="1">
          <mxGeometry relative="1" as="geometry"/>
        </mxCell>
        <mxCell id="D-0crWyyb3UeT7KklOJ1-49" value="&lt;font style=&quot;vertical-align: inherit&quot;&gt;&lt;font style=&quot;vertical-align: inherit&quot;&gt;CPU已经休眠？&lt;/font&gt;&lt;/font&gt;&lt;br&gt;" style="strokeWidth=2;html=1;shape=mxgraph.flowchart.decision;whiteSpace=wrap;fillColor=#ffffff;fontFamily=Helvetica;align=center;strokeColor=#000000;" parent="tD7m0J1AVj7Mmlp5e4tH-1" vertex="1">
          <mxGeometry x="800" y="1680.5" width="160" height="80" as="geometry"/>
        </mxCell>
        <mxCell id="D-0crWyyb3UeT7KklOJ1-50" value="Y" style="text;html=1;strokeColor=none;fillColor=none;align=center;verticalAlign=middle;whiteSpace=wrap;rounded=0;labelBackgroundColor=none;fontFamily=Helvetica;fontSize=15;fontStyle=1" parent="tD7m0J1AVj7Mmlp5e4tH-1" vertex="1">
          <mxGeometry x="880" y="1753" width="40" height="20" as="geometry"/>
        </mxCell>
        <mxCell id="D-0crWyyb3UeT7KklOJ1-55" value="&lt;font color=&quot;#ff0000&quot;&gt;N 60s后&lt;/font&gt;" style="text;html=1;resizable=0;points=[];autosize=1;align=left;verticalAlign=top;spacingTop=-4;fontFamily=Helvetica;fontSize=15;fontStyle=1" parent="tD7m0J1AVj7Mmlp5e4tH-1" vertex="1">
          <mxGeometry x="1000" y="1700" width="70" height="20" as="geometry"/>
        </mxCell>
        <mxCell id="D-0crWyyb3UeT7KklOJ1-56" value="" style="edgeStyle=orthogonalEdgeStyle;rounded=0;orthogonalLoop=1;jettySize=auto;html=1;strokeWidth=2;entryX=0.5;entryY=0;entryDx=0;entryDy=0;entryPerimeter=0;" parent="tD7m0J1AVj7Mmlp5e4tH-1" source="D-0crWyyb3UeT7KklOJ1-57" target="D-0crWyyb3UeT7KklOJ1-25" edge="1">
          <mxGeometry relative="1" as="geometry">
            <mxPoint x="880" y="1957.758620689655" as="targetPoint"/>
          </mxGeometry>
        </mxCell>
        <mxCell id="D-0crWyyb3UeT7KklOJ1-57" value="&lt;font style=&quot;vertical-align: inherit&quot;&gt;&lt;font style=&quot;vertical-align: inherit&quot;&gt;ACC ON？&lt;/font&gt;&lt;/font&gt;" style="rhombus;whiteSpace=wrap;html=1;strokeWidth=2;fillColor=#f8cecc;fontFamily=Helvetica;align=center;strokeColor=#b85450;gradientColor=#ea6b66;" parent="tD7m0J1AVj7Mmlp5e4tH-1" vertex="1">
          <mxGeometry x="840" y="1779.7586206896551" width="80" height="80" as="geometry"/>
        </mxCell>
        <mxCell id="D-0crWyyb3UeT7KklOJ1-58" value="Y" style="text;html=1;strokeColor=none;fillColor=none;align=center;verticalAlign=middle;whiteSpace=wrap;rounded=0;labelBackgroundColor=none;fontFamily=Helvetica;fontSize=15;fontStyle=1" parent="tD7m0J1AVj7Mmlp5e4tH-1" vertex="1">
          <mxGeometry x="880" y="1540" width="40" height="20" as="geometry"/>
        </mxCell>
        <mxCell id="D-0crWyyb3UeT7KklOJ1-60" value="Y" style="text;html=1;strokeColor=none;fillColor=none;align=center;verticalAlign=middle;whiteSpace=wrap;rounded=0;labelBackgroundColor=none;fontFamily=Helvetica;fontSize=15;fontStyle=1" parent="tD7m0J1AVj7Mmlp5e4tH-1" vertex="1">
          <mxGeometry x="910" y="1810" width="40" height="20" as="geometry"/>
        </mxCell>
        <mxCell id="D-0crWyyb3UeT7KklOJ1-61" value="Y" style="text;html=1;strokeColor=none;fillColor=none;align=center;verticalAlign=middle;whiteSpace=wrap;rounded=0;labelBackgroundColor=none;fontFamily=Helvetica;fontSize=15;fontStyle=1" parent="tD7m0J1AVj7Mmlp5e4tH-1" vertex="1">
          <mxGeometry x="750" y="1860" width="40" height="20" as="geometry"/>
        </mxCell>
        <mxCell id="D-0crWyyb3UeT7KklOJ1-62" value="Y" style="text;html=1;resizable=0;points=[];autosize=1;align=center;verticalAlign=middle;spacingTop=-4;fontFamily=Helvetica;labelPosition=center;verticalLabelPosition=middle;strokeWidth=2;fontSize=15;fontStyle=1" parent="tD7m0J1AVj7Mmlp5e4tH-1" vertex="1">
          <mxGeometry x="880" y="1270" width="20" height="10" as="geometry"/>
        </mxCell>
        <mxCell id="D-0crWyyb3UeT7KklOJ1-63" value="&lt;font color=&quot;#ff0000&quot;&gt;N&lt;/font&gt;" style="text;html=1;resizable=0;points=[];autosize=1;align=left;verticalAlign=top;spacingTop=-4;fontFamily=Helvetica;fontSize=15;fontStyle=1" parent="tD7m0J1AVj7Mmlp5e4tH-1" vertex="1">
          <mxGeometry x="945" y="1200" width="30" height="20" as="geometry"/>
        </mxCell>
        <mxCell id="D-0crWyyb3UeT7KklOJ1-64" value="" style="edgeStyle=orthogonalEdgeStyle;rounded=0;orthogonalLoop=1;jettySize=auto;html=1;strokeWidth=2;" parent="tD7m0J1AVj7Mmlp5e4tH-1" source="D-0crWyyb3UeT7KklOJ1-65" target="D-0crWyyb3UeT7KklOJ1-10" edge="1">
          <mxGeometry relative="1" as="geometry"/>
        </mxCell>
        <mxCell id="D-0crWyyb3UeT7KklOJ1-65" value="发送POWER KEY&lt;br&gt;唤醒信号" style="strokeWidth=2;html=1;shape=mxgraph.flowchart.process;whiteSpace=wrap;fillColor=#d5e8d4;fontFamily=Helvetica;align=center;strokeColor=#82b366;" parent="tD7m0J1AVj7Mmlp5e4tH-1" vertex="1">
          <mxGeometry x="820" y="721.5" width="120" height="40" as="geometry"/>
        </mxCell>
        <mxCell id="D-0crWyyb3UeT7KklOJ1-66" value="关闭所有电源&lt;br&gt;" style="strokeWidth=2;html=1;shape=mxgraph.flowchart.process;whiteSpace=wrap;fillColor=none;fontFamily=Helvetica;align=center;strokeColor=#000000;" parent="tD7m0J1AVj7Mmlp5e4tH-1" vertex="1">
          <mxGeometry x="640" y="1820" width="120" height="40" as="geometry"/>
        </mxCell>
        <mxCell id="D-0crWyyb3UeT7KklOJ1-67" value="" style="edgeStyle=segmentEdgeStyle;endArrow=classic;html=1;strokeWidth=2;entryX=0;entryY=0.5;entryDx=0;entryDy=0;entryPerimeter=0;exitX=0.5;exitY=1;exitDx=0;exitDy=0;exitPerimeter=0;" parent="tD7m0J1AVj7Mmlp5e4tH-1" source="D-0crWyyb3UeT7KklOJ1-66" target="D-0crWyyb3UeT7KklOJ1-21" edge="1">
          <mxGeometry width="50" height="50" relative="1" as="geometry">
            <mxPoint x="665" y="1894" as="sourcePoint"/>
            <mxPoint x="800" y="2021" as="targetPoint"/>
            <Array as="points">
              <mxPoint x="700" y="2010"/>
            </Array>
          </mxGeometry>
        </mxCell>
        <mxCell id="D-0crWyyb3UeT7KklOJ1-68" value="" style="edgeStyle=orthogonalEdgeStyle;rounded=0;orthogonalLoop=1;jettySize=auto;html=1;strokeWidth=2;" parent="tD7m0J1AVj7Mmlp5e4tH-1" source="D-0crWyyb3UeT7KklOJ1-69" edge="1">
          <mxGeometry relative="1" as="geometry">
            <mxPoint x="880" y="460" as="targetPoint"/>
          </mxGeometry>
        </mxCell>
        <mxCell id="D-0crWyyb3UeT7KklOJ1-69" value="&lt;font style=&quot;vertical-align: inherit&quot;&gt;&lt;font style=&quot;vertical-align: inherit&quot;&gt;采集开机打火电压1s&lt;/font&gt;&lt;/font&gt;" style="strokeWidth=2;html=1;shape=mxgraph.flowchart.process;whiteSpace=wrap;fontFamily=Helvetica;align=center;" parent="tD7m0J1AVj7Mmlp5e4tH-1" vertex="1">
          <mxGeometry x="820" y="394.5" width="120" height="40" as="geometry"/>
        </mxCell>
        <mxCell id="D-0crWyyb3UeT7KklOJ1-106" style="edgeStyle=orthogonalEdgeStyle;rounded=1;orthogonalLoop=1;jettySize=auto;html=1;strokeWidth=2;entryX=0.5;entryY=0;entryDx=0;entryDy=0;entryPerimeter=0;" parent="tD7m0J1AVj7Mmlp5e4tH-1" source="D-0crWyyb3UeT7KklOJ1-70" target="D-0crWyyb3UeT7KklOJ1-129" edge="1">
          <mxGeometry relative="1" as="geometry">
            <mxPoint x="670" y="520" as="targetPoint"/>
          </mxGeometry>
        </mxCell>
        <mxCell id="D-0crWyyb3UeT7KklOJ1-138" value="" style="edgeStyle=orthogonalEdgeStyle;rounded=1;orthogonalLoop=1;jettySize=auto;html=1;strokeWidth=2;" parent="tD7m0J1AVj7Mmlp5e4tH-1" source="D-0crWyyb3UeT7KklOJ1-70" target="D-0crWyyb3UeT7KklOJ1-137" edge="1">
          <mxGeometry relative="1" as="geometry"/>
        </mxCell>
        <mxCell id="D-0crWyyb3UeT7KklOJ1-70" value="&lt;font style=&quot;vertical-align: inherit&quot;&gt;&lt;font style=&quot;vertical-align: inherit&quot;&gt;&lt;font style=&quot;vertical-align: inherit&quot;&gt;&lt;font style=&quot;vertical-align: inherit&quot;&gt;&lt;font style=&quot;vertical-align: inherit&quot;&gt;&lt;font style=&quot;vertical-align: inherit&quot;&gt;&lt;font style=&quot;vertical-align: inherit&quot;&gt;&lt;font style=&quot;vertical-align: inherit&quot;&gt;供电电压&amp;gt;11V?&lt;/font&gt;&lt;/font&gt;&lt;/font&gt;&lt;/font&gt;&lt;/font&gt;&lt;/font&gt;&lt;/font&gt;&lt;/font&gt;" style="strokeWidth=2;html=1;shape=mxgraph.flowchart.decision;whiteSpace=wrap;fillColor=#ffffff;fontFamily=Helvetica;align=center;strokeColor=#000000;" parent="tD7m0J1AVj7Mmlp5e4tH-1" vertex="1">
          <mxGeometry x="630" y="402" width="140" height="78" as="geometry"/>
        </mxCell>
        <mxCell id="D-0crWyyb3UeT7KklOJ1-71" value="" style="edgeStyle=orthogonalEdgeStyle;rounded=0;orthogonalLoop=1;jettySize=auto;html=1;strokeWidth=2;" parent="tD7m0J1AVj7Mmlp5e4tH-1" source="D-0crWyyb3UeT7KklOJ1-72" target="D-0crWyyb3UeT7KklOJ1-70" edge="1">
          <mxGeometry relative="1" as="geometry"/>
        </mxCell>
        <mxCell id="D-0crWyyb3UeT7KklOJ1-72" value="休眠启动？" style="strokeWidth=2;html=1;shape=mxgraph.flowchart.decision;whiteSpace=wrap;fillColor=#ffffff;fontFamily=Helvetica;align=center;strokeColor=#000000;" parent="tD7m0J1AVj7Mmlp5e4tH-1" vertex="1">
          <mxGeometry x="630" y="290.5" width="140" height="78" as="geometry"/>
        </mxCell>
        <mxCell id="D-0crWyyb3UeT7KklOJ1-74" value="Y" style="text;html=1;resizable=0;points=[];autosize=1;align=center;verticalAlign=middle;spacingTop=-4;fontFamily=Helvetica;labelPosition=center;verticalLabelPosition=middle;strokeWidth=2;fontSize=15;fontStyle=1" parent="tD7m0J1AVj7Mmlp5e4tH-1" vertex="1">
          <mxGeometry x="710" y="376.5" width="20" height="10" as="geometry"/>
        </mxCell>
        <mxCell id="D-0crWyyb3UeT7KklOJ1-75" value="&lt;span style=&quot;font-size: 15px&quot;&gt;&lt;font color=&quot;#ff0000&quot;&gt;N 5s后&lt;/font&gt;&lt;/span&gt;" style="text;html=1;resizable=0;points=[];autosize=1;align=left;verticalAlign=top;spacingTop=-4;fontFamily=Helvetica;strokeWidth=2;fontSize=15;fontStyle=1" parent="tD7m0J1AVj7Mmlp5e4tH-1" vertex="1">
          <mxGeometry x="745" y="581.5" width="60" height="20" as="geometry"/>
        </mxCell>
        <mxCell id="D-0crWyyb3UeT7KklOJ1-76" value="&lt;span style=&quot;font-size: 15px&quot;&gt;&lt;font color=&quot;#ff0000&quot;&gt;N&lt;/font&gt;&lt;/span&gt;" style="text;html=1;resizable=0;points=[];autosize=1;align=left;verticalAlign=top;spacingTop=-4;fontFamily=Helvetica;strokeWidth=2;fontSize=15;fontStyle=1" parent="tD7m0J1AVj7Mmlp5e4tH-1" vertex="1">
          <mxGeometry x="805" y="308" width="30" height="20" as="geometry"/>
        </mxCell>
        <mxCell id="D-0crWyyb3UeT7KklOJ1-77" value="&lt;span style=&quot;font-size: 15px&quot;&gt;&lt;font color=&quot;#ff0000&quot;&gt;N&lt;/font&gt;&lt;/span&gt;" style="text;html=1;resizable=0;points=[];autosize=1;align=left;verticalAlign=top;spacingTop=-4;fontFamily=Helvetica;strokeWidth=2;fontSize=15;fontStyle=1" parent="tD7m0J1AVj7Mmlp5e4tH-1" vertex="1">
          <mxGeometry x="680" y="480" width="30" height="20" as="geometry"/>
        </mxCell>
        <mxCell id="D-0crWyyb3UeT7KklOJ1-79" value="Y" style="text;html=1;resizable=0;points=[];autosize=1;align=center;verticalAlign=middle;spacingTop=-4;fontFamily=Helvetica;labelPosition=center;verticalLabelPosition=middle;strokeWidth=2;fontSize=15;fontStyle=1" parent="tD7m0J1AVj7Mmlp5e4tH-1" vertex="1">
          <mxGeometry x="615" y="419.5" width="20" height="10" as="geometry"/>
        </mxCell>
        <mxCell id="D-0crWyyb3UeT7KklOJ1-80" value="" style="edgeStyle=segmentEdgeStyle;endArrow=classic;html=1;strokeWidth=2;exitX=0.5;exitY=1;exitDx=0;exitDy=0;" parent="tD7m0J1AVj7Mmlp5e4tH-1" source="D-0crWyyb3UeT7KklOJ1-137" edge="1">
          <mxGeometry width="50" height="50" relative="1" as="geometry">
            <mxPoint x="530" y="480" as="sourcePoint"/>
            <mxPoint x="810" y="1925" as="targetPoint"/>
            <Array as="points">
              <mxPoint x="560" y="1925"/>
            </Array>
          </mxGeometry>
        </mxCell>
        <mxCell id="D-0crWyyb3UeT7KklOJ1-83" value="&lt;span style=&quot;font-size: 15px&quot;&gt;&lt;font color=&quot;#ff0000&quot;&gt;N 10s后(休眠启动)/&lt;br&gt;N 300s后(上电启动)&lt;br&gt;&lt;/font&gt;&lt;/span&gt;" style="text;html=1;resizable=0;points=[];autosize=1;align=left;verticalAlign=top;spacingTop=-4;fontFamily=Helvetica;strokeWidth=2;fontSize=15;fontStyle=1" parent="tD7m0J1AVj7Mmlp5e4tH-1" vertex="1">
          <mxGeometry x="965" y="876.5" width="150" height="40" as="geometry"/>
        </mxCell>
        <mxCell id="D-0crWyyb3UeT7KklOJ1-84" value="&lt;span style=&quot;font-size: 15px&quot;&gt;&lt;font color=&quot;#ff0000&quot;&gt;N 30s后&lt;/font&gt;&lt;/span&gt;" style="text;html=1;resizable=0;points=[];autosize=1;align=left;verticalAlign=top;spacingTop=-4;fontFamily=Helvetica;strokeWidth=2;fontSize=15;fontStyle=1" parent="tD7m0J1AVj7Mmlp5e4tH-1" vertex="1">
          <mxGeometry x="1010" y="800" width="70" height="20" as="geometry"/>
        </mxCell>
        <mxCell id="D-0crWyyb3UeT7KklOJ1-85" value="" style="edgeStyle=orthogonalEdgeStyle;rounded=0;orthogonalLoop=1;jettySize=auto;html=1;strokeWidth=2;" parent="tD7m0J1AVj7Mmlp5e4tH-1" source="D-0crWyyb3UeT7KklOJ1-86" target="D-0crWyyb3UeT7KklOJ1-4" edge="1">
          <mxGeometry relative="1" as="geometry"/>
        </mxCell>
        <mxCell id="D-0crWyyb3UeT7KklOJ1-86" value="&lt;font style=&quot;vertical-align: inherit&quot;&gt;&lt;font style=&quot;vertical-align: inherit&quot;&gt;&lt;font style=&quot;vertical-align: inherit&quot;&gt;&lt;font style=&quot;vertical-align: inherit&quot;&gt;&lt;font style=&quot;vertical-align: inherit&quot;&gt;&lt;font style=&quot;vertical-align: inherit&quot;&gt;&lt;font style=&quot;vertical-align: inherit&quot;&gt;&lt;font style=&quot;vertical-align: inherit&quot;&gt;打火电压稳定?&lt;/font&gt;&lt;/font&gt;&lt;/font&gt;&lt;/font&gt;&lt;/font&gt;&lt;/font&gt;&lt;/font&gt;&lt;/font&gt;" style="strokeWidth=2;html=1;shape=mxgraph.flowchart.decision;whiteSpace=wrap;fillColor=#ffffff;fontFamily=Helvetica;align=center;strokeColor=#000000;" parent="tD7m0J1AVj7Mmlp5e4tH-1" vertex="1">
          <mxGeometry x="810" y="460" width="140" height="78" as="geometry"/>
        </mxCell>
        <mxCell id="D-0crWyyb3UeT7KklOJ1-88" value="&lt;font color=&quot;#ff0000&quot;&gt;N&lt;/font&gt;" style="text;html=1;resizable=0;points=[];autosize=1;align=left;verticalAlign=top;spacingTop=-4;fontFamily=Helvetica;fontSize=15;fontStyle=1" parent="tD7m0J1AVj7Mmlp5e4tH-1" vertex="1">
          <mxGeometry x="962.5" y="470" width="30" height="20" as="geometry"/>
        </mxCell>
        <mxCell id="D-0crWyyb3UeT7KklOJ1-89" value="&lt;font color=&quot;#ff0000&quot;&gt;N 20s后&lt;/font&gt;" style="text;html=1;resizable=0;points=[];autosize=1;align=left;verticalAlign=top;spacingTop=-4;fontFamily=Helvetica;fontSize=15;fontStyle=1" parent="tD7m0J1AVj7Mmlp5e4tH-1" vertex="1">
          <mxGeometry x="880" y="1865" width="70" height="20" as="geometry"/>
        </mxCell>
        <mxCell id="D-0crWyyb3UeT7KklOJ1-120" value="" style="edgeStyle=orthogonalEdgeStyle;rounded=1;orthogonalLoop=1;jettySize=auto;html=1;strokeWidth=2;" parent="tD7m0J1AVj7Mmlp5e4tH-1" source="D-0crWyyb3UeT7KklOJ1-107" target="D-0crWyyb3UeT7KklOJ1-108" edge="1">
          <mxGeometry relative="1" as="geometry"/>
        </mxCell>
        <mxCell id="D-0crWyyb3UeT7KklOJ1-107" value="&lt;font style=&quot;vertical-align: inherit&quot;&gt;&lt;font style=&quot;vertical-align: inherit&quot;&gt;超时后，标记错误&lt;/font&gt;&lt;/font&gt;" style="strokeWidth=2;html=1;shape=mxgraph.flowchart.process;whiteSpace=wrap;fillColor=#fff2cc;fontFamily=Helvetica;align=center;strokeColor=#d6b656;" parent="tD7m0J1AVj7Mmlp5e4tH-1" vertex="1">
          <mxGeometry x="1055" y="404.5" width="120" height="40" as="geometry"/>
        </mxCell>
        <mxCell id="D-0crWyyb3UeT7KklOJ1-108" value="关闭所有电源，&lt;br&gt;mcu进入休眠&lt;br&gt;" style="strokeWidth=2;html=1;shape=mxgraph.flowchart.process;whiteSpace=wrap;fillColor=none;fontFamily=Helvetica;align=center;strokeColor=#000000;" parent="tD7m0J1AVj7Mmlp5e4tH-1" vertex="1">
          <mxGeometry x="1055" y="308" width="120" height="45" as="geometry"/>
        </mxCell>
        <mxCell id="D-0crWyyb3UeT7KklOJ1-118" value="" style="shape=flexArrow;endArrow=classic;html=1;fillColor=#f8cecc;strokeWidth=2;fontFamily=Helvetica;fontSize=15;strokeColor=#b85450;gradientColor=#ea6b66;width=9;endSize=9.13;" parent="tD7m0J1AVj7Mmlp5e4tH-1" edge="1">
          <mxGeometry width="50" height="50" relative="1" as="geometry">
            <mxPoint x="1210" y="226.5" as="sourcePoint"/>
            <mxPoint x="1140" y="275.5" as="targetPoint"/>
          </mxGeometry>
        </mxCell>
        <mxCell id="D-0crWyyb3UeT7KklOJ1-119" value="&lt;b&gt;&lt;font style=&quot;vertical-align: inherit&quot;&gt;&lt;font style=&quot;vertical-align: inherit&quot;&gt;ACC ON&lt;br&gt;冷启动&lt;br&gt;&lt;/font&gt;&lt;/font&gt;&lt;/b&gt;" style="text;html=1;resizable=0;points=[];autosize=1;align=left;verticalAlign=top;spacingTop=-4;fontSize=15;fontFamily=Helvetica;" parent="tD7m0J1AVj7Mmlp5e4tH-1" vertex="1">
          <mxGeometry x="1140" y="211" width="70" height="40" as="geometry"/>
        </mxCell>
        <mxCell id="D-0crWyyb3UeT7KklOJ1-125" value="" style="edgeStyle=segmentEdgeStyle;endArrow=classic;html=1;strokeWidth=2;exitX=1;exitY=0.5;exitDx=0;exitDy=0;exitPerimeter=0;entryX=1;entryY=0.5;entryDx=0;entryDy=0;entryPerimeter=0;" parent="tD7m0J1AVj7Mmlp5e4tH-1" source="D-0crWyyb3UeT7KklOJ1-86" target="D-0crWyyb3UeT7KklOJ1-69" edge="1">
          <mxGeometry width="50" height="50" relative="1" as="geometry">
            <mxPoint x="980" y="490" as="sourcePoint"/>
            <mxPoint x="1011" y="390" as="targetPoint"/>
            <Array as="points">
              <mxPoint x="1000" y="499"/>
              <mxPoint x="1000" y="415"/>
            </Array>
          </mxGeometry>
        </mxCell>
        <mxCell id="D-0crWyyb3UeT7KklOJ1-126" value="" style="edgeStyle=segmentEdgeStyle;endArrow=classic;html=1;strokeWidth=2;exitX=0.5;exitY=0;exitDx=0;exitDy=0;exitPerimeter=0;" parent="tD7m0J1AVj7Mmlp5e4tH-1" source="D-0crWyyb3UeT7KklOJ1-108" edge="1">
          <mxGeometry width="50" height="50" relative="1" as="geometry">
            <mxPoint x="1090" y="300" as="sourcePoint"/>
            <mxPoint x="880" y="190" as="targetPoint"/>
            <Array as="points">
              <mxPoint x="1115" y="160"/>
              <mxPoint x="880" y="160"/>
            </Array>
          </mxGeometry>
        </mxCell>
        <mxCell id="D-0crWyyb3UeT7KklOJ1-131" value="" style="edgeStyle=orthogonalEdgeStyle;rounded=1;orthogonalLoop=1;jettySize=auto;html=1;strokeWidth=2;entryX=0.5;entryY=0;entryDx=0;entryDy=0;entryPerimeter=0;" parent="tD7m0J1AVj7Mmlp5e4tH-1" source="D-0crWyyb3UeT7KklOJ1-129" target="D-0crWyyb3UeT7KklOJ1-66" edge="1">
          <mxGeometry relative="1" as="geometry">
            <mxPoint x="680" y="1810.6896551724137" as="targetPoint"/>
          </mxGeometry>
        </mxCell>
        <mxCell id="D-0crWyyb3UeT7KklOJ1-129" value="&lt;font style=&quot;vertical-align: inherit&quot;&gt;&lt;font style=&quot;vertical-align: inherit&quot;&gt;标记错误&lt;/font&gt;&lt;/font&gt;" style="strokeWidth=2;html=1;shape=mxgraph.flowchart.process;whiteSpace=wrap;fillColor=#fff2cc;fontFamily=Helvetica;align=center;strokeColor=#d6b656;" parent="tD7m0J1AVj7Mmlp5e4tH-1" vertex="1">
          <mxGeometry x="640" y="523" width="120" height="40" as="geometry"/>
        </mxCell>
        <mxCell id="D-0crWyyb3UeT7KklOJ1-137" value="&lt;font style=&quot;vertical-align: inherit&quot;&gt;&lt;font style=&quot;vertical-align: inherit&quot;&gt;ACC ON？&lt;/font&gt;&lt;/font&gt;" style="rhombus;whiteSpace=wrap;html=1;strokeWidth=2;fillColor=#f8cecc;fontFamily=Helvetica;align=center;strokeColor=#b85450;gradientColor=#ea6b66;" parent="tD7m0J1AVj7Mmlp5e4tH-1" vertex="1">
          <mxGeometry x="520" y="402.2586206896551" width="80" height="80" as="geometry"/>
        </mxCell>
        <mxCell id="D-0crWyyb3UeT7KklOJ1-140" value="&lt;span style=&quot;font-size: 15px&quot;&gt;&lt;font color=&quot;#ff0000&quot;&gt;N 10s后&lt;/font&gt;&lt;/span&gt;" style="text;html=1;resizable=0;points=[];autosize=1;align=left;verticalAlign=top;spacingTop=-4;fontFamily=Helvetica;strokeWidth=2;fontSize=15;fontStyle=1;fillColor=none;" parent="tD7m0J1AVj7Mmlp5e4tH-1" vertex="1">
          <mxGeometry x="560" y="489" width="70" height="20" as="geometry"/>
        </mxCell>
        <mxCell id="D-0crWyyb3UeT7KklOJ1-141" value="" style="edgeStyle=segmentEdgeStyle;endArrow=classic;html=1;strokeWidth=2;" parent="tD7m0J1AVj7Mmlp5e4tH-1" edge="1">
          <mxGeometry width="50" height="50" relative="1" as="geometry">
            <mxPoint x="700" y="290.5" as="sourcePoint"/>
            <mxPoint x="880" y="250.5" as="targetPoint"/>
            <Array as="points">
              <mxPoint x="700" y="251"/>
            </Array>
          </mxGeometry>
        </mxCell>
        <mxCell id="D-0crWyyb3UeT7KklOJ1-143" value="&lt;font color=&quot;#ff0000&quot;&gt;N&lt;/font&gt;" style="text;html=1;resizable=0;points=[];autosize=1;align=left;verticalAlign=top;spacingTop=-4;fontFamily=Helvetica;fontSize=15;fontStyle=1" parent="tD7m0J1AVj7Mmlp5e4tH-1" vertex="1">
          <mxGeometry x="735" y="231" width="30" height="20" as="geometry"/>
        </mxCell>
        <mxCell id="D-0crWyyb3UeT7KklOJ1-144" value="" style="edgeStyle=segmentEdgeStyle;endArrow=classic;html=1;strokeWidth=2;exitX=0.5;exitY=0;exitDx=0;exitDy=0;" parent="tD7m0J1AVj7Mmlp5e4tH-1" source="D-0crWyyb3UeT7KklOJ1-137" edge="1">
          <mxGeometry width="50" height="50" relative="1" as="geometry">
            <mxPoint x="580" y="390" as="sourcePoint"/>
            <mxPoint x="700" y="380" as="targetPoint"/>
            <Array as="points">
              <mxPoint x="560" y="380"/>
            </Array>
          </mxGeometry>
        </mxCell>
        <mxCell id="D-0crWyyb3UeT7KklOJ1-145" value="Y" style="text;html=1;resizable=0;points=[];autosize=1;align=center;verticalAlign=middle;spacingTop=-4;fontFamily=Helvetica;labelPosition=center;verticalLabelPosition=middle;strokeWidth=2;fontSize=15;fontStyle=1" parent="tD7m0J1AVj7Mmlp5e4tH-1" vertex="1">
          <mxGeometry x="560" y="360.5" width="20" height="10" as="geometry"/>
        </mxCell>
        <mxCell id="Y3y01hqlXCQmyfMlpAqb-2" value="" style="edgeStyle=segmentEdgeStyle;endArrow=classic;html=1;strokeWidth=2;" edge="1" parent="tD7m0J1AVj7Mmlp5e4tH-1">
          <mxGeometry width="50" height="50" relative="1" as="geometry">
            <mxPoint x="879.5" y="2030" as="sourcePoint"/>
            <mxPoint x="879" y="180" as="targetPoint"/>
            <Array as="points">
              <mxPoint x="879" y="2060"/>
              <mxPoint x="1240" y="2060"/>
              <mxPoint x="1240" y="120"/>
              <mxPoint x="879" y="120"/>
            </Array>
          </mxGeometry>
        </mxCell>
      </root>
    </mxGraphModel>
  </diagram>
</mxfile>
